<?xml version="1.0" encoding="UTF-8" standalone="no"?>
<svg xmlns="http://www.w3.org/2000/svg" viewBox="0 0 36 36">
<style>
	g path { stroke: none; }
	g.root { display: none; }
	g.root:target { display: inline; }
	g line { stroke: black; }
	g circle { stroke: black; }
	g polyline { stroke: black; }
</style>
<g class="root" id="accessibility" data-name="accessibility">
	<path d="M17.991 35.995C8.068 35.995-0.002 27.922-0.002 17.996C-0.002 8.069 8.068-0.005 17.991-0.005C27.915-0.005 35.987 8.069 35.987 17.996C35.987 27.922 27.915 35.995 17.991 35.995ZM17.941 7.171C16.591 7.171 15.492 8.276 15.492 9.634C15.492 10.992 16.591 12.097 17.941 12.097C19.29 12.097 20.389 10.992 20.389 9.634C20.389 8.276 19.29 7.171 17.941 7.171ZM24.798 12.89L24.66 12.897L19.503 13.632L16.471 13.638L11.27 12.903L11.091 12.89C10.368 12.89 9.736 13.502 9.623 14.314C9.567 14.722 9.647 15.128 9.849 15.461C10.07 15.827 10.426 16.067 10.819 16.122L15.692 16.812L15.692 19.591L12.832 26.532C12.491 27.361 12.885 28.315 13.709 28.658C13.905 28.738 14.111 28.779 14.322 28.779C14.98 28.779 15.568 28.385 15.821 27.776L17.941 22.628L20.063 27.774C20.312 28.383 20.9 28.778 21.561 28.778C21.774 28.778 21.98 28.737 22.176 28.655C22.573 28.491 22.883 28.177 23.049 27.774C23.216 27.37 23.216 26.929 23.05 26.531L20.192 19.589L20.192 16.81L25.065 16.122C25.847 16.011 26.388 15.202 26.268 14.314C26.156 13.502 25.524 12.89 24.798 12.89Z" />
</g>
<g class="root" id="accessibility_clear_all" data-name="accessibility-clear-all">
	<path d="M30.94 7.361L28.793 36L6.794 36L4.649 7.361L1.635 7.361L1.635 4.78L11.706 4.78L11.706 0L23.801 0L23.801 4.78L34.365 4.78L34.365 7.361L30.94 7.361ZM21.323 2.538L14.223 2.538L14.223 4.738L21.323 4.738L21.323 2.538ZM7.125 7.317L9.064 33.376L26.399 33.376L28.381 7.317L7.125 7.317ZM21.122 29.72L22.115 10.966L24.629 11.106L23.636 29.861L21.122 29.72ZM16.493 11.041L19.011 11.041L19.011 29.782L16.493 29.782L16.493 11.041ZM10.875 11.106L13.389 10.967L14.38 29.722L11.867 29.861L10.875 11.106Z" />
</g>
<g class="root" id="accessibility_hide" data-name="accessibility-hide">
	<path d="M36 3.281L32.729 0.009L18.001 14.729L3.272 0.009L0 3.281L14.728 17.999L0 32.719L3.272 35.991L18.001 21.271L32.729 35.991L36 32.719L21.273 17.999L36 3.281Z" />
</g>
<g class="root" id="accessibility_high_contr" data-name="accessibility-high-contrast">
	<path d="M18 36C8.06 36 0 27.94 0 18C0 8.059 8.06 0 18 0C27.941 0 36 8.06 36 18C36 27.94 27.94 36 18 36ZM18 2.878C9.662 2.878 2.88 9.662 2.88 18C2.88 26.338 9.662 33.122 18 33.122C26.338 33.122 33.122 26.338 33.122 18C33.122 9.662 26.338 2.878 18 2.878ZM29.637 18C29.637 18 29.637 18 29.637 18C29.637 18 29.637 18 29.637 18L29.637 18ZM18 29.637L18 6.363C24.417 6.363 29.637 11.583 29.637 18C29.637 24.417 24.417 29.637 18 29.637Z" />
</g>
<g class="root" id="accessibility_skip_to_co" data-name="accessibility-skip-to-content">
	<path d="M12.594 23.418L12.594 19.825L36 19.825L36 23.418L12.594 23.418ZM0 12.58L36 12.58L36 16.175L0 16.175L0 12.58ZM27.027 3.599L36 3.599L36 7.192L27.027 7.192L27.027 3.599ZM0 3.599L23.409 3.599L23.409 7.192L0 7.192L0 3.599ZM8.975 23.418L0 23.418L0 19.825L8.975 19.825L8.975 23.418ZM19.79 32.401L0 32.401L0 28.806L19.79 28.806L19.79 32.401Z" />
</g>
<g class="root" id="accessibility_text_size" data-name="accessibility-text-size">
	<path d="M30.953 17.652L30.953 12.604L28.429 12.604L28.429 17.652L23.38 17.652L23.38 20.177L28.429 20.177L28.429 25.224L30.953 25.224L30.953 20.177L36 20.177L36 17.652L30.953 17.652ZM27.02 1.805L0.009 1.796L0 5.405L11.052 5.405L11.052 34.204L14.738 34.204L14.738 5.405L27.02 5.405L27.02 1.805Z" />
</g>
<g class="root" id="arrow_left" data-name="arrow_left">
	<path d="M8 18l1.5-1.6L24.8 0L28 3.2L14.1 18L28 32.8L24.8 36L9.4 19.6Z" />
</g>
<g class="root" id="arrow_right" data-name="arrow_right">
	<path d="M28 18l-1.5 1.6L11.2 36L8 32.8L21.9 18L8 3.2L11.2 0l15.4 16.4L28 18z" />
</g>
<g class="root" id="close" data-name="close">
	<path d="M35.354 3.806a2.2 2.2 0 0 0 0-3.117l-0.04-0.036a2.21 2.21 0 0 0-3.121 0l-13.643 13.635a0.8 0.8 0 0 1-1.12 0l-13.643-13.635a2.186 2.186 0 0 0-3.101 0l-0.04 0.036a2.2 2.2 0 0 0 0 3.117l13.643 13.635a0.788 0.788 0 0 1 0 1.118l-13.643 13.635a2.2 2.2 0 0 0 0 3.117l0.04 0.036a2.186 2.186 0 0 0 3.101 0l13.643-13.635a0.8 0.8 0 0 1 1.12 0l13.643 13.635a2.21 2.21 0 0 0 3.121 0l0.04-0.036a2.2 2.2 0 0 0 0-3.117l-13.643-13.635a0.788 0.788 0 0 1 0-1.118Z" />
</g>
<g class="root" id="contact" data-name="contact">
	<path d="M31.605 4.302H4.402c-2.428 0-4.402 1.974-4.402 4.402v18.592c0 2.428 1.974 4.402 4.402 4.402h27.196c2.428 0 4.402-1.974 4.402-4.402v-18.585C36.007 6.284 34.033 4.302 31.605 4.302zM33.996 27.297c0 1.318-1.073 2.391-2.391 2.391H4.402c-1.318 0-2.391-1.073-2.391-2.391v-18.585c0-1.318 1.073-2.391 2.391-2.391h27.196c1.318 0 2.391 1.073 2.391 2.391v18.585H33.996z" />
	<path d="M22.704 17.77l8.804-7.896c0.41-0.372 0.447-1.006 0.074-1.423c-0.372-0.41-1.006-0.447-1.423-0.074l-12.142 10.898l-2.369-2.115c-0.007-0.007-0.015-0.015-0.015-0.022c-0.052-0.052-0.104-0.097-0.164-0.142L5.832 8.369c-0.417-0.372-1.05-0.335-1.423 0.082c-0.372 0.417-0.335 1.05 0.082 1.423l8.909 7.963L4.529 26.142c-0.402 0.38-0.425 1.013-0.045 1.423c0.201 0.209 0.469 0.32 0.737 0.32c0.246 0 0.492-0.089 0.685-0.268l9.006-8.425l2.443 2.182c0.194 0.171 0.432 0.253 0.67 0.253c0.238 0 0.484-0.089 0.67-0.261l2.51-2.25l8.953 8.507c0.194 0.186 0.447 0.276 0.693 0.276c0.268 0 0.529-0.104 0.73-0.313c0.38-0.402 0.365-1.043-0.037-1.423L22.704 17.77z" />
</g>
<g class="root" id="description" data-name="description">
	<path d="M0 31.065L0 4.935L36 4.935L36 31.065L0 31.065ZM33.097 7.832L2.903 7.832L2.903 28.168L33.097 28.168L33.097 7.832ZM20.329 25.252L5.813 25.252L5.813 22.355L20.329 22.355L20.329 25.252ZM5.813 16.542L30.189 16.542L30.189 19.456L5.813 19.456L5.813 16.542ZM5.813 10.748L30.189 10.748L30.189 13.645L5.813 13.645L5.813 10.748Z" />
</g>
<g class="root" id="directions" data-name="directions">
	<path d="M18.2 0.002a13.677 13.677 0 0 0-2.282 0.16a13.424 13.424 0 0 0-11.337 13.058C4.461 20.634 13.136 31.345 17.789 35.999c5.862-5.862 13.515-14.955 13.63-22.367l-7.664-0.12h0a5.938 5.938 0 0 1-2.093 3.28a5.938 5.938 0 0 1-3.676 1.278a5.938 5.938 0 0 1-4.188-1.742a5.938 5.938 0 0 1-1.731-4.192a5.938 5.938 0 0 1 1.74-4.188a5.938 5.938 0 0 1 4.192-1.731a5.938 5.938 0 0 1 4.19 1.74a5.928 5.928 0 0 1 1.731 4.192l-5.928 0l5.928 0h0a5.799 5.799 0 0 1-0.168 1.36l7.661 0.115a13.425 13.425 0 0 0-13.22-13.625Z" />
</g>
<g class="root" id="fax" data-name="fax">
	<path d="M36 31.032v2.217a0.552 0.552 0 0 1-0.544 0.544H26.17a0.552 0.552 0 0 1-0.544-0.544V31.032l0.251-2.301s-2.385-1.548-7.865-1.548-7.865 1.548-7.865 1.548l0.251 2.301v2.176a0.552 0.552 0 0 1-0.544 0.544H0.522A0.552 0.552-2.929 0 1 0 33.208V30.991a10.011 10.011 0 0 1 2.301-6.15C5.041 23 11.778 21.41 17.99 21.41s12.97 1.632 15.731 3.431A10.356 10.356-2.929 0 1 36 31.032ZM31.754 22.037A1.23 1.23-2.929 0 1 30.541 20.824v-6.276H21.839a1.23 1.23 0 0 1-1.213-1.213V4.633H5.439V20.824a1.213 1.213 0 1 1-2.427 0V3.42a1.23 1.23 0 0 1 1.213-1.213H21.839a0.243 0.243 0 0 1 0.147 0.047a1.041 1.041 0 0 1 0.711 0.31L32.633 12.477a1.135 1.135 0 0 1 0.315 0.716a0.259 0.259 0 0 1 0.042 0.142V20.824A1.23 1.23-2.929 0 1 31.754 22.037ZM28.781 12.08L23.052 6.349V12.08Z" />
</g>
<g class="root" id="globe" data-name="globe">
	<path d="M18 32.326a14.04 14.04 0 0 1-7.578-2.196l0.72-3.384a4.006 4.006 0 0 0-0.27-2.466l-1.098-2.376a0.88 0.88 0 0 0-0.684-0.504l-3.978-0.558a0.479 0.479 0 0 1-0.306-0.792l0.684-0.846a0.948 0.948 0 0 1 0.792-0.306l1.494 0.234a1.284 1.284 0 0 0 0.522-0.036l2.016-0.45a0.38 0.38 0 0 0 0.18-0.072l1.332-0.648a0.849 0.849 0 0 0 0.486-0.648l0.54-3.978a0.846 0.846 0 0 0-0.54-0.918l-0.684-0.252a0.9 0.9 0 0 1-0.594-0.792a0.879 0.879 0 0 1 0.792-0.918l0.99-0.072a0.874 0.874 0 0 0 0.792-0.918l-0.072-1.206l-0.126-2.394a0.804 0.804 0 0 0-0.558-0.756l-0.54-0.18a14.091 14.091 0 0 1 5.652-1.134a12.456 12.456 0 0 1 3.186 0.378l0.108 2.124v0.072l-0.27 2.646a0.387 0.387 0 0 0 0.072 0.27l0.306 0.45a0.38 0.38 0 0 0 0.576 0.072l0.792-0.72a0.416 0.416 0 0 1 0.648 0.198l0.036 0.108a0.36 0.36 0 0 0 0.342 0.27l0.9 0.036a0.242 0.242 0 0 0 0.162-0.036l0.756-0.306a0.369 0.369 0 0 1 0.486 0.486l-0.414 1.368a0.348 0.348 0 0 1-0.342 0.27l-1.008 0.036h-0.126l-1.278-0.378a0.681 0.681 0 0 0-0.27 0l-0.612 0.27a0.447 0.447 0 0 1-0.306 0l-0.792-0.378a0.387 0.387 0 0 0-0.342 0.036l-1.026 0.72a0.339 0.339 0 0 0-0.144 0.306l0.144 1.17a0.322 0.322 0 0 1-0.216 0.378l-0.756 0.342a0.39 0.39 0 0 0-0.126 0.612l0.54 0.486a0.519 0.519 0 0 0 0.342 0.108l0.972-0.216a0.494 0.494 0 0 1 0.234 0.036l0.45 0.18a8.232 8.232 0 0 1 0.72 0.54a0.408 0.408 0 0 0 0.576-0.072a0.51 0.51 0 0 1 0.27-0.198l0.756-0.072a0.312 0.312 0 0 0 0.216-0.108l0.09-0.09a0.36 0.36 0 0 1 0.594 0.162l0.378 1.062c0.036 0.036 0.036 0.072 0.072 0.108l0.432 0.576a0.411 0.411 0 0 1-0.036 0.522l-1.062 0.99a0.39 0.39 0 0 1-0.54 0l-1.026-0.954c-0.036-0.036-0.072-0.036-0.108-0.072l-1.44-0.612c-0.036 0-0.072-0.036-0.108-0.036l-1.908-0.18h-0.144l-1.584 0.45a1.522 1.522 0 0 0-1.062 1.026l-0.378 1.17a1.383 1.383 0 0 0 0.072 1.134l0.594 1.296a1.65 1.65 0 0 0 1.296 0.9l1.44 0.162c0.036 0 0.108 0.036 0.144 0.036l0.81 0.45a0.37 0.37 0 0 1 0.18 0.306l0.108 1.44a4.156 4.156 0 0 0 0.432 1.44l0.684 1.278a0.416 0.416 0 0 0 0.108 0.162l1.134 0.828a0.462 0.462 0 0 0 0.648-0.108l0.378-0.504c0.036-0.072 0.072-0.108 0.108-0.18l0.828-2.088a0.108 0.108 0 0 1 0.054-0.108l0.252-3.006c0-0.036 0.054-0.072 0.054-0.108l0.594-1.242a0.426 0.426 0 0 1 0.378-0.234l2.052 0.27a0.54 0.54 0 0 0 0.342-0.126l0.378-0.414a0.408 0.408 0 0 0 0.036-0.486l-0.99-1.296a0.413 0.413 0 0 1 0.234-0.612l0.378-0.072c0.072 0 0.648-0.036 0.828-0.072h0.072l0.918 0.144a0.396 0.396 0 0 1 0.378 0.432l-0.234 2.61a0.236 0.236 0 0 0 0.054 0.18l0.72 1.872a14.362 14.362 0 0 1-13.158 8.676h0Zm0-32.326a18 18 0 1 0 18 18A18 18-8468.53 0 0 18 0Z" />
</g>
<g class="root" id="home" data-name="home">
	<path d="M35.815 19.997l-17.325-17.966a0.655 0.655 0 0 0-0.479-0.205h0a0.665 0.665 0 0 0-0.491 0.201l-17.325 17.972a0.671 0.671 0 0 0 0.012 0.951a0.706 0.706 0 0 0 0.491 0.181a0.67 0.67 0 0 0 0.467-0.202l2.253-2.336V33.504a0.682 0.682 0 0 0 0.683 0.673h9.501a0.671 0.671 0 0 0 0.671-0.673V23.05h7.453v10.456a0.682 0.682 0 0 0 0.683 0.673h9.501a0.682 0.682 0 0 0 0.683-0.673V18.592l2.241 2.33a0.694 0.694 0 0 0 0.479 0.207h0.012a0.669 0.669 0 0 0 0.491-1.132h0Zm-13.407 1.706h-8.806a0.67 0.67 0 0 0-0.671 0.67v10.46h-8.159V17.187l13.228-13.731l13.24 13.731V32.833h-8.159v-10.46a0.671 0.671 0 0 0-0.671-0.67h0Z" />
</g>
<g class="root" id="person_circle" data-name="person-circle">
	<path d="M24.719 1.297a18.024 18.024 0 0 0-24.586 14.47A19.772 19.772-3803.767 0 0 0 18.002a17.987 17.987 0 0 0 27.742 15.119a0.673 0.673 0 0 0 0.264-0.169a17.999 17.999 0 0 0-3.288-31.659h0Zm-6.72 33.358a16.547 16.547 0 0 1-8.856-2.563a0.6 0.6 0 0 0 0.012-0.146a14.782 14.782 0 0 1 0.12-1.842c0.816-4.553 5.82-5.233 8.724-5.233 2.46 0 8.232 0.56 8.796 5.745 0.012 0.107 0.024 0.701 0.036 1.493a16.523 16.523 0 0 1-8.832 2.545h0Zm10.164-3.48c-0.012-0.341-0.012-0.612-0.024-0.707-0.48-4.352-4.272-6.95-10.14-6.95-5.748 0-9.312 2.254-10.056 6.344a12 12 0 0 0-0.12 1.309a16.633 16.633 0 0 1-6.48-13.168a16.942 16.942 0 0 1 0.132-2.071a16.647 16.647 0 1 1 26.686 15.239h0ZM18 8.772c-3.312 0-5.628 2.47-5.628 6 0 3.732 2.52 6.767 5.628 6.767s5.628-3.035 5.628-6.767C23.627 11.241 21.311 8.772 18 8.772Zm0 11.419c-2.364 0-4.272-2.429-4.272-5.417 0-2.784 1.716-4.655 4.272-4.655s4.272 1.871 4.272 4.655C22.271 17.762 20.352 20.19 18 20.19Z" />
</g>
<g class="root" id="phone" data-name="phone">
	<path class="cls-1" d="M3.32 2.07l1.886-1.886a0.674 0.674 0 0 1 0.926 0L14.014 8.081a0.674 0.674 0 0 1 0 0.926L12.143 10.913L9.99 12.634s0.709 3.34 5.367 8.003S23.346 26.004 23.346 26.004l1.746-2.173l1.846-1.846a0.664 0.664 0 0 1 0.926 0l7.933 7.933a0.664 0.664 0 0 1 0 0.926l-1.881 1.881a12.033 12.033 0 0 1-7.188 3.275c-3.914-0.785-10.991-5.156-16.253-10.423S0.83 13.167 0.015 9.288a12.435 12.435 0 0 1 3.305-7.219Z" />
</g>
<g class="root" id="play" data-name="play">
	<path d="M18 1.5A16.5 16.5-3803.788 1 1 1.5 18A16.52 16.52-3803.788 0 1 18 1.5Zm0-1.5a18 18 0 1 0 18 18A18 18-3803.788 0 0 18 0Zm-5.244 26.542a0.784 0.784 0 0 1-0.384-0.1a0.755 0.755 0 0 1-0.372-0.649V10.2a0.75 0.75 0 0 1 1.128-0.65l13.5 7.8a0.754 0.754 0 0 1 0 1.3l-13.5 7.793a0.752 0.752 0 0 1-0.384 0.104h0.012Zm0.744-15.04v12.99l11.244-6.496l-11.244-6.496h0Z" />
</g>
<g class="root" id="playpause" data-name="playpause">
	<path d="M31.398 27.243L31.398 8.757L36 8.757L36 27.243L31.398 27.243ZM22.175 8.757L26.777 8.757L26.777 27.243L22.175 27.243L22.175 8.757ZM0 6.908L16.618 18L0 29.092L0 6.908Z" />
</g>
<g class="root" id="quotes" data-name="quotes">
	<path d="M8.013 15.466a8.045 8.045 0 0 1 6.48 1.483a7.661 7.661 0 0 1 0.231 12.059a8.034 8.034 0 0 1-5.245 1.86a9.036 9.036 0 0 1-7.602-4.26a14.634 14.634 0 0 1-1.877-6.96c0.309-6.651 3.214-11.288 8.768-13.765a11.187 11.187 0 0 1 2.006-0.557l0.977-0.137a1.55 1.55 0 0 1 1.954 1.62v1.628a1.607 1.607 0 0 1-1.483 1.62c-2.983 0.549-4.217 1.997-4.551 5.451m4.354-8.957c-6.583 0.969-10.071 7.225-10.302 13.174a10.971 10.971 0 0 0 1.568 6.034a7.495 7.495 0 0 0 6.265 3.48a6.613 6.613 0 0 0 4.148-1.466a6.055 6.055 0 0 0-0.231-9.514a6.322 6.322 0 0 0-5.245-1.166a1.573 1.573 0 0 1-0.549 0.077a1.614 1.614 0 0 1-1.646-1.543a2.571 2.571 0 0 1 0-0.771c0.394-3.326 1.568-5.648 5.794-6.42 0.163 0 0.163-0.077 0.163-0.077m14.476 7.105a8.038 8.038 0 0 1 6.48 1.483a7.661 7.661 0 0 1 0.231 12.059a8.002 8.002 0 0 1-5.245 1.86a9.021 9.021 0 0 1-7.594-4.26a14.731 14.731 0 0 1-1.886-6.96c0.317-6.651 3.214-11.288 8.777-13.765a11.097 11.097 0 0 1 1.997-0.557l0.977-0.137a1.55 1.55 0 0 1 1.954 1.62v1.628a1.607 1.607 0 0 1-1.483 1.62c-2.974 0.549-4.217 1.997-4.551 5.451m4.363-8.957c-6.591 0.969-10.071 7.225-10.311 13.174a10.971 10.971 0 0 0 1.568 6.034a7.495 7.495 0 0 0 6.265 3.48a6.613 6.613 0 0 0 4.148-1.466a6.055 6.055 0 0 0-0.231-9.514a6.322 6.322 0 0 0-5.245-1.166a1.573 1.573 0 0 1-0.549 0.077a1.614 1.614 0 0 1-1.646-1.543a2.571 2.571 0 0 1 0-0.771c0.394-3.326 1.568-5.648 5.794-6.42 0.154 0 0.154-0.077 0.154-0.077" />
</g>
<g class="root" id="site" data-name="site">
	<path d="M34.464 35.999L1.521 35.999C0.681 35.999-0.008 35.311-0.008 34.471L-0.008 1.528C-0.008 0.687 0.681-0.001 1.521-0.001L17.954-0.001C18.795-0.001 19.483 0.687 19.483 1.528C19.483 2.368 18.795 3.057 17.954 3.057L2.973 3.057L2.973 33.018L32.859 33.018L32.859 18.038C32.859 17.197 33.547 16.509 34.388 16.509C35.228 16.509 35.917 17.197 35.992 18.038L35.992 34.471C35.992 35.311 35.305 35.999 34.464 35.999ZM34.464 13.069C33.623 13.069 32.936 12.381 32.936 11.54L32.936 5.197L19.025 19.107C18.718 19.413 18.336 19.566 17.954 19.566C17.573 19.566 17.19 19.413 16.884 19.107C16.273 18.496 16.273 17.579 16.884 16.968L30.718 3.132L24.375 3.132C23.534 3.132 22.846 2.445 22.846 1.604C22.846 0.764 23.534 0.076 24.375 0.076L34.311 0.076C34.388 0.076 34.54 0.076 34.617 0.076C34.693 0.076 34.693 0.076 34.77 0.076C34.846 0.152 34.846 0.152 34.922 0.152C34.999 0.152 34.999 0.228 35.076 0.228C35.152 0.228 35.228 0.305 35.228 0.305C35.381 0.458 35.534 0.61 35.61 0.764C35.687 0.764 35.687 0.839 35.687 0.839C35.687 0.916 35.763 0.916 35.763 0.993C35.84 1.069 35.84 1.069 35.84 1.146C35.84 1.222 35.917 1.222 35.992 1.298C35.992 1.375 35.992 1.528 35.992 1.604L35.992 11.54C35.992 12.381 35.305 13.069 34.464 13.069Z" />
</g>
<g class="root" id="vcard" data-name="vCard">
	<path d="M34.918 31.801L1.081 31.801C0.48 31.801 0 31.322 0 30.723L0 5.278C0 4.679 0.48 4.2 1.081 4.2L34.958 4.2L34.957 4.199C35.558 4.199 36.038 4.718 35.998 5.318L35.998 30.723C35.998 31.322 35.518 31.801 34.918 31.801ZM2.203 6.396L2.203 29.647L33.836 29.647L33.877 6.396L2.203 6.396ZM29.912 23.933L21.303 23.933C20.702 23.933 20.222 23.455 20.222 22.855C20.222 22.255 20.702 21.776 21.303 21.776L29.912 21.777C30.512 21.777 30.993 22.257 30.993 22.856C30.993 23.455 30.512 23.933 29.912 23.933ZM29.912 18.542L21.303 18.542C20.702 18.542 20.222 18.062 20.222 17.462C20.222 16.862 20.702 16.383 21.303 16.383L29.912 16.385C30.512 16.385 30.993 16.864 30.993 17.463C30.993 18.062 30.512 18.542 29.912 18.542ZM29.912 13.187L21.303 13.187C20.702 13.187 20.222 12.669 20.222 12.109C20.222 11.509 20.702 11.031 21.303 11.031L29.912 11.031C30.512 11.031 30.993 11.509 30.993 12.109C30.993 12.708 30.512 13.187 29.912 13.187ZM17.18 26.49L5.927 26.49L5.927 26.49C5.327 26.49 4.847 26.011 4.885 25.372L4.885 22.777C4.885 20.18 6.366 17.903 8.569 16.784C7.608 15.945 7.008 14.705 7.008 13.348C7.008 10.831 9.089 8.754 11.613 8.753C14.136 8.753 16.217 10.829 16.217 13.347C16.217 14.705 15.617 15.942 14.657 16.782C16.819 17.902 18.34 20.138 18.34 22.774L18.34 22.815L18.261 25.412C18.261 26.011 17.781 26.49 17.18 26.49ZM11.572 10.99C10.252 10.99 9.13 12.07 9.129 13.427C9.129 14.787 10.211 15.864 11.572 15.864C12.935 15.864 14.015 14.786 14.015 13.427C14.015 12.069 12.894 10.99 11.572 10.99ZM11.572 18.262C9.051 18.262 7.008 20.299 7.008 22.815L7.008 24.333L16.097 24.333L16.138 22.815C16.138 20.299 14.094 18.262 11.572 18.262Z" />
</g>
</svg>