<svg xmlns:xlink="http://www.w3.org/1999/xlink" xmlns="http://www.w3.org/2000/svg" viewBox="0 0 24 24" class="right-margin-tiny fit" role="presentation" title="Backwater Valves Icon" data-use="/cms/svg/site/ykmkv4_n6ok.24.svg#backwater" width="47"  height="47" >
                                 <path d="M7.874 3.937h-0.818v-1.008c0-0.503 0.409-0.914 0.914-0.914H12c0.503 0 0.914 0.409 0.914 0.914v1.008h-0.818v-1.008c0-0.052-0.042-0.095-0.095-0.095H7.968c-0.052 0-0.095 0.042-0.095 0.095V3.937zM7.874 12.599H12.095V10.993h0.818V12.599h8.253v-1.008H24v11.401h-2.834v-1.008H2.834v1.008H0V11.591h2.834V12.599h4.222V10.897h-1.103c-0.503 0-0.914-0.409-0.914-0.914V5.449c0-0.503 0.409-0.914 0.914-0.914h7.39L16.87 1.008h6.217C23.591 1.008 24 1.417 24 1.922v1.512c0 0.503-0.409 0.914-0.914 0.914h-4.87l-3.792 3.792v1.846c0 0.503-0.409 0.914-0.914 0.914H7.874V12.599zM5.952 10.079h7.559c0.052 0 0.095-0.042 0.095-0.095V7.799l4.271-4.271h5.209c0.052 0 0.095-0.042 0.095-0.095V1.922c0-0.052-0.042-0.095-0.095-0.095h-5.877l-3.528 3.528H5.952c-0.052 0-0.095 0.042-0.095 0.095v4.535C5.858 10.037 5.9 10.079 5.952 10.079zM2.015 12.409H0.818v9.765h1.197V12.409zM21.985 22.174H23.182V12.409h-1.197V22.174zM21.166 13.417H2.834v7.75h18.331V13.417z" fill="#ECA900"></path>
                              </svg>