<svg xmlns:xlink="http://www.w3.org/1999/xlink" xmlns="http://www.w3.org/2000/svg" viewBox="0 0 24 24" class="right-margin-tiny fit" role="presentation" title="Bathroom Plumbing Renovation Upgrade Icon" data-use="/cms/svg/site/ykmkv4_n6ok.24.svg#bathtub" width="47"  height="47" >
                                 <path d="M3.5 9.5V6c0-0.825 0.675-1.5 1.5-1.5h0.5c0.825 0 1.5 0.675 1.5 1.5v0.5h-0.5v1h2V6.5h-0.5V6c0-1.38-1.12-2.5-2.5-2.5h-0.5C3.62 3.5 2.5 4.62 2.5 6v3.5H0l0 1.88l0.365 0.105C0.375 11.485 1.5 11.825 1.5 12.5v2c0 2.085 1.43 3.84 3.355 4.345L4.5 19.92V20.5h1v-0.42l0.365-1.09c0.045 0 0.09 0.005 0.135 0.005h12c0.045 0 0.09-0.005 0.135-0.005L18.5 20.08V20.5h1v-0.58l-0.355-1.07C21.07 18.34 22.5 16.585 22.5 14.5v-2c0-0.675 1.125-1.015 1.135-1.02l0.365-0.1V9.5H3.5zM23 10.645c-0.675 0.285-1.5 0.885-1.5 1.855v2c0 1.93-1.57 3.5-3.5 3.5H6c-1.93 0-3.5-1.57-3.5-3.5v-2c0-0.97-0.825-1.57-1.5-1.855V10.5h22V10.645zM17 16.5c0-0.275 0.225-0.5 0.5-0.5c1.105 0 2-0.895 2-2v-1.295c0-0.59 0.23-1.145 0.645-1.56c0.195-0.195 0.51-0.195 0.705 0c0.195 0.195 0.195 0.51 0 0.705C20.625 12.08 20.5 12.385 20.5 12.705V14c0 1.655-1.345 3-3 3C17.225 17 17 16.775 17 16.5z" fill="#ECA900"></path>
                              </svg>