<svg xmlns:xlink="http://www.w3.org/1999/xlink" xmlns="http://www.w3.org/2000/svg" viewBox="0 0 24 24" class="right-margin-tiny fit" role="presentation" title="Camera Drain Inspection Icon" data-use="/cms/svg/site/ykmkv4_n6ok.24.svg#drain_camera" width="39"  height="39" >

													<path d="M23.5 20V9.5c0-4.135-3.365-7.5-7.5-7.5S8.5 5.365 8.5 9.5v5c0 0.275-0.225 0.5-0.5 0.5s-0.5-0.225-0.5-0.5V4h0.5V1H0v3h0.5v10.5c0 4.135 3.365 7.5 7.5 7.5s7.5-3.365 7.5-7.5V9.5c0-0.275 0.225-0.5 0.5-0.5s0.5 0.225 0.5 0.5v10.5h-0.5v3h8v-3H23.5zM1 2h6v1H1V2zM16 8c-0.825 0-1.5 0.675-1.5 1.5v5c0 3.585-2.915 6.5-6.5 6.5S1.5 18.085 1.5 14.5V4h5v10.5c0 0.825 0.675 1.5 1.5 1.5s1.5-0.675 1.5-1.5V9.5c0-3.585 2.915-6.5 6.5-6.5s6.5 2.915 6.5 6.5v10.5H17.5V9.5C17.5 8.675 16.825 8 16 8zM23 22H17v-1h6V22z" fill="#ECA900"></path>

												</svg>