<svg xmlns:xlink="http://www.w3.org/1999/xlink" xmlns="http://www.w3.org/2000/svg" viewBox="0 0 24 24" class="right-margin-tiny fit" role="presentation" title="Commercial Plumbing Icon" data-use="/cms/svg/site/ykmkv4_n6ok.24.svg#commerial" width="47"  height="47" >
                                 <path d="M7.265 10.604V7.491h0.843v3.113H7.265zM18.221 11.026h4.937V8.01c0-1.09-0.888-1.978-1.978-1.978h-4.67c-0.379 0-0.747 0.108-1.065 0.312L2.79 14.401l0.452 0.711l12.654-8.059c0.183-0.117 0.395-0.178 0.613-0.178h4.67c0.627 0 1.135 0.51 1.135 1.135v2.173h-6.325v0.843h0.929l-9.653 8.206v2.401l0.518 1.009v0.514H0.843v-0.514l0.518-1.009V7.491h-0.843v13.938L0 22.438v1.561h8.628v-1.561l-0.518-1.009v-1.808L18.221 11.026zM8.108 6.874H0.518v-1.201c0-0.643 0.431-1.219 1.048-1.401L15.94 0.052c0.195-0.063 0.414-0.07 0.624-0.018c0.476 0.119 0.818 0.506 0.875 0.986c0.059 0.48-0.18 0.937-0.608 1.163l-0.021 0.01L8.108 6.204V6.874zM7.265 5.665l9.181-4.23c0.17-0.096 0.163-0.263 0.157-0.312c-0.006-0.051-0.041-0.219-0.236-0.268c-0.063-0.015-0.124-0.014-0.18 0.004L1.804 5.082c-0.261 0.076-0.443 0.32-0.443 0.591v0.358h5.904V5.665z" fill="#ECA900"></path>
                              </svg>