<svg xmlns:xlink="http://www.w3.org/1999/xlink" xmlns="http://www.w3.org/2000/svg" viewBox="0 0 24 24" class="right-margin-tiny fit" role="presentation" title="Custom Home Plumbing Icon" data-use="/cms/svg/site/ykmkv4_n6ok.24.svg#custom" width="39"  height="39" >

													<path d="M22.076 21.295c-0.513-0.004-1.026-0.001-1.595-0.001c0-0.257 0-0.437 0-0.617c0-1.675 0-3.35 0-5.025c0-0.117 0-0.235-0.001-0.351c-0.001-0.247-0.084-0.435-0.363-0.444c-0.281-0.008-0.368 0.189-0.394 0.425c-0.01 0.083-0.001 0.167-0.001 0.251c0.001 1.726 0.002 3.451 0.001 5.176c0 0.176-0.022 0.352-0.034 0.545c-1.606 0-3.156 0-4.783 0c0-0.217 0-0.412 0-0.607c-0.002-2.061-0.002-4.121-0.007-6.181c-0.001-0.659-0.077-0.75-0.704-0.753c-1.608-0.008-3.216-0.006-4.824 0.003c-0.557 0.003-0.635 0.093-0.637 0.646c-0.001 2.094 0 4.187-0.001 6.282c0 0.194-0.019 0.388-0.029 0.583c-1.631 0-3.208 0-4.815 0c0-0.25 0-0.45 0-0.65c0-2.764 0-5.528 0-8.292c0-0.134-0.001-0.268-0.001-0.402c-0.001-0.237-0.12-0.396-0.35-0.411c-0.268-0.015-0.384 0.166-0.398 0.416c-0.008 0.151-0.004 0.302-0.004 0.453c0 2.781 0 5.562-0.002 8.342c0 0.192-0.025 0.383-0.042 0.61c-0.257 0-0.456-0.001-0.654 0c-0.402 0.002-0.804-0.001-1.206 0.011c-0.216 0.007-0.338 0.134-0.346 0.352c-0.008 0.227 0.127 0.333 0.338 0.356c0.083 0.009 0.167 0.011 0.25 0.012c0.67 0.013 1.339 0.037 2.009 0.036c6.197-0.01 12.395-0.023 18.593-0.037c0.488-0.001 0.721-0.131 0.677-0.393C22.685 21.234 22.354 21.298 22.076 21.295zM14.155 21.249c-1.584 0-3.084 0-4.626 0c0-2.258 0-4.489 0-6.756c1.521 0 3.021 0 4.623 0C14.158 16.726 14.155 18.957 14.155 21.249zM23.679 7.805c-0.683-1.691-1.866-3.002-3.198-4.195c-0.3-0.268-0.485-0.235-0.835 0.078c-0.914 0.818-1.74 1.718-2.403 2.756c-0.604 0.944-1.054 1.943-1.025 3.108c0.057 0.362 0.091 0.73 0.175 1.087c0.385 1.633 1.743 2.736 3.432 2.804c1.915 0.078 3.39-0.847 3.925-2.491C24.09 9.901 24.098 8.845 23.679 7.805zM23.045 10.667c-0.475 1.522-2.031 2.326-3.698 1.956c-1.836-0.408-2.502-2.002-2.332-3.619c0.046-0.439 0.209-0.878 0.387-1.289c0.468-1.09 1.85-2.784 2.754-3.406c0.339 0.344 0.698 0.686 1.033 1.052c0.726 0.793 1.358 1.65 1.768 2.656C23.312 8.89 23.323 9.779 23.045 10.667zM0.889 11.808c-0.45 0.372-0.607 0.403-0.798 0.16c-0.175-0.222-0.111-0.377 0.307-0.724C3.999 8.268 7.599 5.293 11.199 2.317c0.077-0.064 0.163-0.12 0.233-0.191c0.267-0.268 0.51-0.229 0.787 0.006c0.959 0.809 1.932 1.604 2.899 2.404c0.245 0.203 0.489 0.408 0.734 0.61c0.211 0.176 0.444 0.355 0.222 0.663c-0.145 0.202-0.396 0.165-0.7-0.086c-0.955-0.79-1.908-1.582-2.862-2.371c-0.218-0.181-0.441-0.355-0.7-0.563c-1.359 1.119-2.678 2.203-3.994 3.289C5.507 7.987 3.199 9.898 0.889 11.808zM20.797 11.271c0 0.246-0.217 0.378-0.552 0.356c-1.152-0.077-2.175-1.117-2.229-2.267c-0.012-0.262 0.059-0.48 0.357-0.503c0.27-0.021 0.359 0.16 0.4 0.409c0.164 1.02 0.594 1.455 1.56 1.596C20.585 10.899 20.797 10.966 20.797 11.271z" fill="#ECA900"></path>

												</svg>