<svg xmlns:xlink="http://www.w3.org/1999/xlink" xmlns="http://www.w3.org/2000/svg" viewBox="0 0 24 24" class="values-icon" role="presentation" data-use="/cms/svg/site/ykmkv4_n6ok.24.svg#saftey" width="47"  height="47" >
               <path d="M23.286 23.704c-0.097 0.241-0.37 0.358-0.611 0.262c-0.201-0.081-0.406-0.161-0.614-0.242c-2.135-0.836-4.553-1.783-4.553-3.69c0-0.798 0.269-1.408 0.581-2.113c0.426-0.963 0.956-2.163 0.956-4.424V7.985c0-1.071-0.361-2.842-1.379-4.309C16.407 1.86 14.5 0.94 12 0.94c-2.5 0-4.407 0.92-5.666 2.736C5.316 5.144 4.955 6.914 4.955 7.985v5.511c0 2.261 0.53 3.46 0.956 4.424c0.312 0.706 0.581 1.315 0.581 2.113c0 1.907-2.419 2.855-4.553 3.69c-0.207 0.081-0.413 0.162-0.614 0.242c-0.057 0.023-0.117 0.034-0.175 0.034c-0.186 0-0.363-0.112-0.436-0.295c-0.097-0.241 0.021-0.514 0.262-0.611c0.203-0.081 0.411-0.163 0.619-0.244c1.855-0.727 3.956-1.55 3.956-2.815c0-0.6-0.221-1.101-0.501-1.733c-0.462-1.044-1.036-2.344-1.036-4.803V7.985C4.015 5.764 5.449 0 12 0c6.551 0 7.985 5.764 7.985 7.985v5.511c0 2.459-0.574 3.759-1.036 4.803c-0.28 0.634-0.501 1.134-0.501 1.733c0 1.266 2.102 2.089 3.956 2.815c0.21 0.082 0.416 0.164 0.619 0.244C23.266 23.19 23.382 23.464 23.286 23.704zM16.979 14.734c0 2.044-1.558 4.243-4.979 4.243c-3.422 0-4.979-2.2-4.979-4.243c0-1.096 0.485-1.778 1.027-2.271h-0.557c-0.812 0-1.472-0.661-1.472-1.472V8.486c0-0.71 0.506-1.305 1.175-1.442c0.869-1.504 2.801-2.535 4.806-2.535s3.937 1.031 4.806 2.535c0.67 0.137 1.175 0.732 1.175 1.442v2.505c0 0.812-0.661 1.472-1.472 1.472h-0.557C16.495 12.956 16.979 13.639 16.979 14.734zM8.361 7.014h7.276c-0.81-0.947-2.197-1.565-3.639-1.565S9.172 6.067 8.361 7.014zM7.491 11.523h1.774c0.023-0.021 0.045-0.041 0.066-0.061c0.143-0.141 0.293-0.304 0.453-0.476c0.636-0.688 1.357-1.467 2.216-1.467c0.859 0 1.58 0.779 2.216 1.467c0.159 0.172 0.31 0.335 0.453 0.476c0.021 0.021 0.043 0.04 0.066 0.061h1.774c0.293 0 0.532-0.239 0.532-0.532V8.486c0-0.293-0.239-0.532-0.532-0.532H7.491c-0.293 0-0.532 0.239-0.532 0.532v2.505C6.959 11.284 7.198 11.523 7.491 11.523zM16.039 14.734c0-1.099-0.658-1.57-1.355-2.068c-0.245-0.175-0.477-0.341-0.673-0.534c-0.16-0.156-0.318-0.327-0.484-0.508c-0.48-0.519-1.078-1.166-1.527-1.166c-0.448 0-1.046 0.647-1.527 1.166c-0.167 0.18-0.325 0.352-0.484 0.509c-0.196 0.193-0.428 0.358-0.673 0.534c-0.697 0.498-1.355 0.969-1.355 2.068c0 1.644 1.249 3.303 4.039 3.303C14.79 18.037 16.039 16.378 16.039 14.734z" fill="#ECA900"></path>
            </svg>