<svg xmlns="http://www.w3.org/2000/svg" width="60" height="60" viewBox="0 0 24 24"><path d="M15.613 21.719A8.009 8.009 0 0 1 10 24c-4.421 0-8-3.547-8-7.925C2 11.699 5.13 7.197 10 0c2.473 3.653 4.493 6.61 5.887 9.211a6.446 6.446 0 0 0-1.854.801C13.012 8.126 11.649 6.023 10 3.571c-3.658 5.437-6 9.223-6 12.503C4 19.342 6.691 22 10 22a6.009 6.009 0 0 0 3.678-1.254 6.484 6.484 0 0 0 1.935.973zM22 15.5c0 2.485-2.017 4.5-4.5 4.5S13 17.985 13 15.5s2.017-4.5 4.5-4.5 4.5 2.015 4.5 4.5zm-2-.5h-2v-2h-1v2h-2v1h2v2h1v-2h2v-1z"/></svg>