<svg xmlns:xlink="http://www.w3.org/1999/xlink" xmlns="http://www.w3.org/2000/svg" viewBox="0 0 36 36" class="floater" title="Open the accessibility options menu" tabindex="0" data-action="open" data-role="btn" data-type="open" role="button" aria-pressed="false" aria-haspopup="false" data-use="/cms/svg/site/ykmkv4_n6ok.36.svg#accessibility" width="50"  height="50" >
				<path d="M17.991 35.995C8.068 35.995-0.002 27.922-0.002 17.996C-0.002 8.069 8.068-0.005 17.991-0.005C27.915-0.005 35.987 8.069 35.987 17.996C35.987 27.922 27.915 35.995 17.991 35.995ZM17.941 7.171C16.591 7.171 15.492 8.276 15.492 9.634C15.492 10.992 16.591 12.097 17.941 12.097C19.29 12.097 20.389 10.992 20.389 9.634C20.389 8.276 19.29 7.171 17.941 7.171ZM24.798 12.89L24.66 12.897L19.503 13.632L16.471 13.638L11.27 12.903L11.091 12.89C10.368 12.89 9.736 13.502 9.623 14.314C9.567 14.722 9.647 15.128 9.849 15.461C10.07 15.827 10.426 16.067 10.819 16.122L15.692 16.812L15.692 19.591L12.832 26.532C12.491 27.361 12.885 28.315 13.709 28.658C13.905 28.738 14.111 28.779 14.322 28.779C14.98 28.779 15.568 28.385 15.821 27.776L17.941 22.628L20.063 27.774C20.312 28.383 20.9 28.778 21.561 28.778C21.774 28.778 21.98 28.737 22.176 28.655C22.573 28.491 22.883 28.177 23.049 27.774C23.216 27.37 23.216 26.929 23.05 26.531L20.192 19.589L20.192 16.81L25.065 16.122C25.847 16.011 26.388 15.202 26.268 14.314C26.156 13.502 25.524 12.89 24.798 12.89Z" fill="#FFFFFF"></path>
			</svg>