<svg xmlns:xlink="http://www.w3.org/1999/xlink" xmlns="http://www.w3.org/2000/svg" viewBox="0 0 24 24" class="values-icon" role="presentation" data-use="/cms/svg/site/ykmkv4_n6ok.24.svg#truck" width="47"  height="47" >
               <path d="M23.103 12.759L23.103 12.759c-0.261-0.213-0.519-0.392-0.668-0.492c-0.221-0.791-1.288-4.183-3.39-4.183h-3.127V4.042H0.001v13.896h3.061c0.183 1.159 1.187 2.021 2.375 2.021c1.188 0 2.192-0.862 2.375-2.021h8.881c0.183 1.159 1.187 2.021 2.375 2.021s2.192-0.862 2.375-2.021h2.556V14.021C24.001 13.66 23.715 13.258 23.103 12.759zM5.438 19.197c-0.907 0-1.645-0.734-1.645-1.636s0.738-1.636 1.645-1.636c0.907 0 1.645 0.734 1.645 1.636S6.345 19.197 5.438 19.197zM15.157 4.802v12.375H7.812c-0.187-1.154-1.19-2.012-2.374-2.012s-2.187 0.858-2.374 2.012H0.761V4.802H15.157zM19.069 19.197c-0.907 0-1.645-0.734-1.645-1.636s0.738-1.636 1.645-1.636s1.645 0.734 1.645 1.636S19.976 19.197 19.069 19.197zM15.917 8.844h3.127c0.863 0 1.54 0.981 1.955 1.804c0.271 0.537 0.469 1.078 0.597 1.477h-3.029c-0.347 0-0.63-0.283-0.63-0.63v-2.135h-0.76v2.135c0 0.767 0.624 1.391 1.391 1.391h3.423c0.122 0.082 0.379 0.257 0.631 0.463c0.551 0.449 0.613 0.657 0.618 0.679v3.15h-1.797c-0.187-1.154-1.19-2.012-2.374-2.012s-2.187 0.858-2.374 2.012h-0.778V8.844zM4.295 11.763c0.882 0.882 2.012 1.142 3.099 0.713c0.203-0.08 0.455-0.017 0.63 0.158l3.059 3.059c0.263 0.263 0.612 0.407 0.983 0.407c0.037 0 0.075-0.002 0.113-0.005c0.407-0.033 0.779-0.244 1.021-0.579c0.391-0.544 0.311-1.33-0.188-1.828l-3.021-3.021c-0.174-0.175-0.238-0.427-0.158-0.63c0.43-1.087 0.17-2.216-0.713-3.099c-0.509-0.509-1.21-0.844-1.921-0.918c-0.732-0.076-1.4 0.129-1.832 0.56c-0.072 0.072-0.111 0.167-0.111 0.269s0.04 0.197 0.111 0.269l1.517 1.517l-0.891 0.891l-1.517-1.517c-0.072-0.072-0.167-0.111-0.269-0.111c-0.102 0-0.197 0.04-0.269 0.111c-0.432 0.432-0.636 1.1-0.56 1.832C3.451 10.554 3.785 11.254 4.295 11.763zM7.69 8.368l-1.466-1.466c0.251-0.114 0.563-0.158 0.896-0.124c0.54 0.056 1.073 0.311 1.461 0.699c0.658 0.658 0.856 1.49 0.543 2.282c-0.193 0.487-0.064 1.055 0.327 1.447l3.021 3.021c0.238 0.238 0.285 0.602 0.109 0.846c-0.113 0.156-0.278 0.251-0.465 0.266c-0.184 0.015-0.366-0.052-0.497-0.182l-3.059-3.059c-0.264-0.264-0.621-0.416-0.98-0.416c-0.162 0-0.319 0.03-0.467 0.088c-0.792 0.313-1.623 0.115-2.282-0.543c-0.388-0.388-0.643-0.921-0.699-1.461c-0.035-0.333 0.009-0.646 0.124-0.896l1.466 1.466c0.072 0.072 0.167 0.111 0.269 0.111c0.102 0 0.197-0.04 0.269-0.111l1.429-1.429c0.072-0.072 0.111-0.167 0.111-0.269C7.802 8.535 7.762 8.44 7.69 8.368z" fill="#ECA900"></path>
            </svg>