<svg xmlns:xlink="http://www.w3.org/1999/xlink" xmlns="http://www.w3.org/2000/svg" viewBox="0 0 36 36" data-use="/cms/svg/admin/ufphi5p03ss.36.svg#google_plus" width="36"  height="36" >
											<path xmlns="http://www.w3.org/2000/svg" d="M26.862 15.617c-1.177 1.036-2.73 1.666-4.43 1.666c-1.7 0-3.254-0.63-4.43-1.666c-1.177 1.036-2.73 1.666-4.43 1.666c-1.7 0-3.254-0.63-4.43-1.666c-1.177 1.036-2.73 1.666-4.43 1.666c-0.378 0-0.746-0.038-1.108-0.098v15.439C3.6 33.826 4.591 34.8 5.815 34.8h24.37C31.409 34.8 32.4 33.826 32.4 32.624V17.185c-0.361 0.06-0.73 0.098-1.108 0.098C29.592 17.284 28.038 16.652 26.862 15.617zM28.89 30.563c-1.372 1.724-3.902 2.231-5.963 1.554c-2.186-0.702-3.776-2.855-3.728-5.112c-0.109-2.788 2.389-5.364 5.244-5.398c1.454-0.121 2.87 0.431 3.972 1.332c-0.451 0.485-0.911 0.965-1.403 1.415c-0.968-0.576-2.136-1.014-3.268-0.625c-1.828 0.509-2.934 2.618-2.258 4.366c0.559 1.825 2.831 2.827 4.61 2.06c0.922-0.323 1.53-1.153 1.796-2.047c-1.056-0.02-2.113-0.008-3.168-0.036c-0.002-0.614-0.006-1.226-0.002-1.841c1.76-0.002 3.526-0.007 5.288 0.007C30.118 27.744 29.891 29.354 28.89 30.563zM31.2 1.2H4.8L0 9.988c0 2.045 1.438 3.749 3.374 4.238c0.361 0.091 0.734 0.155 1.126 0.155c2.485 0 4.5-1.967 4.5-4.394c0 2.426 2.015 4.394 4.5 4.394S18 12.415 18 9.988c0 2.426 2.015 4.394 4.5 4.394s4.5-1.967 4.5-4.394c0 2.426 2.015 4.394 4.5 4.394c0.391 0 0.763-0.064 1.126-0.155C34.562 13.736 36 12.034 36 9.988L31.2 1.2z" fill="#030F26"></path>
										</svg>