<svg xmlns:xlink="http://www.w3.org/1999/xlink" xmlns="http://www.w3.org/2000/svg" viewBox="0 0 36 36" alt="Home Icon" role="presentation" data-use="/cms/svg/site/ykmkv4_n6ok.36.svg#home" width="36"  height="36" >
                        <path d="M35.815 19.997l-17.325-17.966a0.655 0.655 0 0 0-0.479-0.205h0a0.665 0.665 0 0 0-0.491 0.201l-17.325 17.972a0.671 0.671 0 0 0 0.012 0.951a0.706 0.706 0 0 0 0.491 0.181a0.67 0.67 0 0 0 0.467-0.202l2.253-2.336V33.504a0.682 0.682 0 0 0 0.683 0.673h9.501a0.671 0.671 0 0 0 0.671-0.673V23.05h7.453v10.456a0.682 0.682 0 0 0 0.683 0.673h9.501a0.682 0.682 0 0 0 0.683-0.673V18.592l2.241 2.33a0.694 0.694 0 0 0 0.479 0.207h0.012a0.669 0.669 0 0 0 0.491-1.132h0Zm-13.407 1.706h-8.806a0.67 0.67 0 0 0-0.671 0.67v10.46h-8.159V17.187l13.228-13.731l13.24 13.731V32.833h-8.159v-10.46a0.671 0.671 0 0 0-0.671-0.67h0Z" fill="#006DDE"></path>
                     </svg>