<svg xmlns:xlink="http://www.w3.org/1999/xlink" xmlns="http://www.w3.org/2000/svg" viewBox="0 0 36 36" data-use="/cms/svg/admin/ufphi5p03ss.36.svg#instagram" width="36"  height="36" >
											<path d="M25.283 35.997L10.737 35.997C4.816 35.989 0.018 31.191 0.01 25.271L0.01 10.723C0.018 4.802 4.816 0.006 10.737-0.002L25.283-0.002C31.204 0.006 36.001 4.802 36.01 10.723L36.01 25.271C36.001 31.191 31.204 35.989 25.283 35.997ZM32.385 10.723C32.388 6.802 29.213 3.62 25.291 3.615C25.289 3.615 25.287 3.615 25.283 3.615L10.737 3.615C6.815 3.615 3.636 6.794 3.636 10.715L3.636 25.271C3.636 29.192 6.815 32.371 10.737 32.371L25.283 32.371C29.205 32.371 32.385 29.192 32.385 25.271L32.385 10.723ZM27.342 10.987C26.093 10.987 25.08 9.975 25.08 8.726C25.08 7.477 26.093 6.464 27.342 6.464C28.59 6.464 29.603 7.477 29.603 8.726C29.603 9.975 28.59 10.987 27.342 10.987ZM18.01 27.305C12.869 27.305 8.701 23.138 8.701 17.997C8.701 12.856 12.869 8.688 18.01 8.688C23.151 8.688 27.319 12.856 27.319 17.997C27.311 23.135 23.148 27.298 18.01 27.305ZM18.01 12.306C14.867 12.306 12.319 14.854 12.319 17.997C12.319 21.14 14.867 23.688 18.01 23.688C21.153 23.688 23.701 21.14 23.701 17.997C23.701 14.854 21.153 12.306 18.01 12.306Z" fill="#030F26"></path>
										</svg>