<svg xmlns="http://www.w3.org/2000/svg" width="60" height="60" viewBox="0 0 24 24"><path d="m13.895 10.623 1.37-2.054a1.143 1.143 0 0 1 1.901 1.268l-1.369 2.054a1.143 1.143 0 0 1-1.902-1.268zm-1.881-.684a1.145 1.145 0 0 0 1.587-.317l1.383-2.074a1.144 1.144 0 1 0-1.904-1.27l-1.383 2.074a1.142 1.142 0 0 0 .317 1.587zm7.007 3.949-1.212 1.817a1.052 1.052 0 0 0 1.75 1.166l1.211-1.817a1.05 1.05 0 1 0-1.749-1.166zm-3.071-.84a1.139 1.139 0 1 0 1.895 1.264l1.312-1.968a1.138 1.138 0 1 0-1.895-1.264l-1.312 1.968zM21.615 24c-.609 0-1.22-.232-1.686-.698l-7.022-7.144c1.088-1.203.56-3.279-1.182-3.588l-3.074-.546-1.058-1.058a2.992 2.992 0 0 0-2.273-.871 5.036 5.036 0 0 1-3.842-1.472A5.065 5.065 0 0 1 .277 3.396L3.491 6.61c1.253.074 3.192-1.865 3.118-3.119L3.396.277a5.06 5.06 0 0 1 5.226 1.202 5.04 5.04 0 0 1 1.472 3.842 2.99 2.99 0 0 0 .871 2.273l.027.027c-1.243 2.083.433 3.51 1.806 3.457-.247 1.181 1.017 2.411 2.102 2.411-.269 1.04.536 2.125 1.789 2.371-.505 1.822 2.258 3.767 3.857 1.315l2.756 2.755A2.384 2.384 0 0 1 21.615 24zm.885-2.5a1 1 0 1 0-2.001.001A1 1 0 0 0 22.5 21.5zm-9.631-3.939c-.667-.688-1.701-.739-3.584-.864-.286-.019-.462.165-.485.443l-.458 4.208s2.794 1.888 3.94 2.652c1.064-1.921 2.699-2.037 3.921-3.002l-3.334-3.437zm-1.622-1.692c1.457 0 1.678-2.064.303-2.308-5.171-.919-4.899-.889-5.069-.889-.635 0-1.186.453-1.309 1.078l-.446 3.946c-.061.631.145 1.176.633 1.532.487.354 2.026 1.449 2.026 1.449s.328-2.835.42-3.651c.093-.815.551-1.378 1.424-1.335.092.004 1.859.178 2.018.178z"/></svg>