<svg xmlns:xlink="http://www.w3.org/1999/xlink" xmlns="http://www.w3.org/2000/svg" viewBox="0 0 24 24" class="values-icon" role="presentation" data-use="/cms/svg/site/ykmkv4_n6ok.24.svg#knowledge" width="47"  height="47" >
               <path d="M21.244 16.59c-0.049-0.422-0.283-0.845-0.697-1.26l-0.585-0.585l0.827-0.827c0.586-0.587 0.581-1.549-0.013-2.146l-0.172-0.17c-0.188-0.188-0.416-0.32-0.665-0.391c0.051-0.154 0.078-0.317 0.076-0.486c-0.004-0.404-0.162-0.784-0.449-1.071l-0.173-0.173c-0.193-0.193-0.429-0.327-0.687-0.395c0.154-0.518 0.024-1.105-0.387-1.518l-0.171-0.169c-0.289-0.29-0.674-0.45-1.083-0.45c0 0 0 0 0 0c-0.255 0-0.499 0.063-0.715 0.179c-0.074-0.204-0.192-0.396-0.355-0.56l-0.174-0.174c-0.595-0.595-1.556-0.599-2.144-0.012l-1.038 1.039L11.126 5.907c-0.489-0.519-0.431-1.206-0.4-1.574c0.006-0.07 0.011-0.131 0.012-0.178c0.04-1.114-0.386-2.201-1.168-2.982C8.432 0.035 6.734-0.31 5.242 0.293c-0.146 0.059-0.253 0.188-0.284 0.342c-0.031 0.154 0.017 0.314 0.128 0.425l1.854 1.854c0.343 0.343 0.339 0.925-0.008 1.273c-0.347 0.348-0.93 0.35-1.274 0.008L3.806 2.341c-0.112-0.112-0.271-0.16-0.425-0.129c-0.154 0.031-0.283 0.138-0.342 0.284c-0.603 1.491-0.258 3.19 0.88 4.327c0.78 0.78 1.863 1.205 2.975 1.167c0.054-0.001 0.116-0.006 0.185-0.012c0.28-0.023 0.749-0.062 1.182 0.137l0.392-0.854c-0.658-0.302-1.306-0.249-1.652-0.22c-0.052 0.005-0.094 0.008-0.126 0.008c-0.004 0-0.007 0-0.01 0c-0.852 0.03-1.685-0.295-2.282-0.892c-0.689-0.689-0.998-1.647-0.869-2.582l1.281 1.282c0.717 0.715 1.883 0.711 2.602-0.008c0.719-0.719 0.722-1.886 0.008-2.601L6.323 0.968c0.935-0.131 1.893 0.178 2.583 0.868c0.598 0.597 0.924 1.43 0.893 2.293c-0.001 0.031-0.005 0.073-0.009 0.124c-0.038 0.442-0.125 1.478 0.658 2.304c0.003 0.003 0.006 0.006 0.008 0.008l0.576 0.576c-0.152-0.011-0.252-0.003-0.264-0.002c-0.066 0.007-0.129 0.026-0.186 0.059c-1.811 1.03-2.534 2.608-2.624 2.818c-0.335 0.677-0.646 3.286-0.706 3.809c-0.001 0.006-0.001 0.01-0.002 0.016c-0.039 0.492-0.258 0.808-0.258 0.808c-0.154 0.209-0.11 0.502 0.099 0.657c0.084 0.062 0.181 0.092 0.279 0.092c0.144 0 0.286-0.066 0.379-0.191c0.039-0.052 0.376-0.529 0.439-1.283c0.167-1.464 0.442-3.167 0.613-3.489c0.007-0.013 0.014-0.028 0.02-0.041c0.006-0.014 0.594-1.401 2.125-2.317c0.16 0.008 0.505 0.061 0.796 0.353c0.261 0.261 2.26 2.26 3.098 3.099c-0.432 0.295-1.161 0.623-1.747 0.037L11.481 9.952c-0.183-0.183-0.481-0.183-0.664 0c-0.183 0.183-0.183 0.481 0 0.664l0.617 0.617c0.008 0.009 0.015 0.021 0.024 0.03c1.323 1.323 0.54 3.019 0.503 3.096c-0.113 0.233-0.016 0.513 0.217 0.626c0.067 0.032 0.136 0.048 0.206 0.048c0.174 0 0.341-0.097 0.423-0.264c0.216-0.443 0.423-1.218 0.33-2.065c0.709 0.282 1.447 0.067 2.019-0.266c0.049 0.321 0.195 0.618 0.429 0.852l0.173 0.174c0.28 0.28 0.65 0.437 1.043 0.446c0.009 0.379 0.158 0.755 0.448 1.045l0.172 0.172c0.286 0.286 0.667 0.445 1.071 0.449c0.004 0 0.008 0 0.012 0c0.271 0 0.531-0.072 0.757-0.205l0.621 0.621c0.256 0.256 0.405 0.5 0.427 0.703c0.008 0.07 0.033 0.285-0.277 0.595c-0.309 0.309-0.524 0.285-0.595 0.276c-0.203-0.023-0.445-0.171-0.702-0.427l-3.764-3.765l-0.664 0.664l2.477 2.478c-1.347 1.231-2.387 2.016-3.091 2.331c-0.869 0.391-1.537 0.218-1.561 0.211c-0.164-0.048-0.342-0.002-0.463 0.119l-0.819 0.82l-5.123-5.124c-0.183-0.183-0.481-0.183-0.664 0L3.057 16.88c-0.183 0.183-0.183 0.481 0 0.664c0.183 0.183 0.481 0.183 0.664 0l1.675-1.675l5.655 5.655L9.376 23.199c-0.183 0.183-0.183 0.481 0 0.664c0.092 0.092 0.212 0.137 0.332 0.137c0.12 0 0.24-0.046 0.332-0.137l2.007-2.007c0.088-0.088 0.137-0.208 0.137-0.332s-0.05-0.244-0.137-0.332l-0.531-0.531l0.646-0.646c0.379 0.047 1.094 0.059 1.917-0.311c0.811-0.363 1.917-1.191 3.371-2.524l0.623 0.623c0.413 0.413 0.837 0.647 1.259 0.696c0.057 0.007 0.115 0.009 0.171 0.009c0.425 0 0.827-0.186 1.195-0.555C21.116 17.537 21.3 17.077 21.244 16.59zM14.343 7.047c0.222-0.222 0.588-0.216 0.816 0.012l0.173 0.174c0.227 0.228 0.233 0.593 0.013 0.814L14.017 9.375c-0.361-0.361-0.714-0.715-1.001-1.001L14.343 7.047zM14.681 10.04l1.328-1.327c0.001-0.001 0.002-0.002 0.003-0.003l0.659-0.658c0.104-0.104 0.245-0.162 0.395-0.162c0.158 0 0.306 0.062 0.42 0.176l0.171 0.169c0.228 0.229 0.234 0.595 0.012 0.817l-1.988 1.988C15.468 10.827 15.099 10.457 14.681 10.04zM16.249 12.628c-0.111-0.111-0.172-0.258-0.174-0.414c-0.001-0.154 0.056-0.296 0.162-0.402l1.678-1.677c0.104-0.104 0.244-0.162 0.395-0.162c0.002 0 0.004 0 0.005 0c0.156 0.001 0.303 0.063 0.414 0.174l0.173 0.172c0.111 0.111 0.172 0.258 0.174 0.414c0.001 0.153-0.056 0.296-0.162 0.401l-0.449 0.448c-0.002 0.002-0.004 0.004-0.006 0.006l-1.224 1.224c-0.105 0.105-0.243 0.164-0.402 0.162c-0.156-0.001-0.303-0.063-0.413-0.172L16.249 12.628zM18.5 14.638c-0.157-0.001-0.303-0.063-0.414-0.174l-0.172-0.172c-0.228-0.228-0.234-0.595-0.012-0.817l0.093-0.093l1.136-1.136c0.103-0.1 0.241-0.156 0.391-0.156c0 0 0 0 0.001 0c0.158 0 0.307 0.062 0.421 0.176l0.172 0.17c0.228 0.229 0.233 0.595 0.012 0.816l-1.225 1.224C18.796 14.582 18.653 14.636 18.5 14.638z" fill="#ECA900"></path>
            </svg>