<svg xmlns:xlink="http://www.w3.org/1999/xlink" xmlns="http://www.w3.org/2000/svg" viewBox="0 0 24 24" class="right-margin-tiny fit" role="presentation" title="Leaks Icon" data-use="/cms/svg/site/ykmkv4_n6ok.24.svg#leaks" width="47"  height="47" >
                                 <path d="M20.775 0.507v1.013H3.224V0.507H-0.001v11.838h3.225V11.352l17.551-0.02v1.013h3.225V0.507H20.775zM2.533 11.655H0.69V1.198h1.843V11.655zM12.344 10.652V9.382l-0.96-1.44l0.866-1.73l2.412-0.969l-0.258-0.641l-2.322 0.934l-1.358-1.358l-0.488 0.488l1.345 1.345l-0.747 1.495l-0.705-0.352l-0.309 0.618l0.931 0.466l0.905 1.357v1.06L3.224 10.661V2.211h17.551v8.431L12.344 10.652zM23.309 11.655h-1.843V1.198h1.843V11.655zM13.865 16.452c0-0.829-0.419-1.456-0.823-2.064c-0.314-0.471-0.611-0.916-0.702-1.434c-0.029-0.166-0.173-0.286-0.341-0.286s-0.311 0.121-0.341 0.286c-0.091 0.518-0.388 0.964-0.702 1.434c-0.405 0.607-0.823 1.235-0.823 2.064c0 1.107 0.82 1.974 1.865 1.974S13.865 17.559 13.865 16.452zM11.999 17.735c-0.659 0-1.174-0.564-1.174-1.284c0-0.619 0.344-1.135 0.708-1.681c0.162-0.243 0.327-0.49 0.467-0.753c0.14 0.264 0.305 0.51 0.467 0.753c0.364 0.546 0.708 1.06 0.708 1.681C13.174 17.171 12.659 17.735 11.999 17.735zM15.379 18.522c-0.031-0.162-0.174-0.28-0.338-0.28s-0.307 0.117-0.338 0.28c-0.089 0.454-0.382 0.85-0.693 1.27c-0.41 0.553-0.834 1.125-0.834 1.89c0 1.015 0.82 1.811 1.865 1.811s1.865-0.796 1.865-1.811c0-0.766-0.424-1.338-0.834-1.89C15.761 19.372 15.466 18.975 15.379 18.522zM15.039 22.803c-0.659 0-1.174-0.492-1.174-1.12c0-0.538 0.338-0.995 0.698-1.479c0.166-0.223 0.334-0.45 0.477-0.694c0.143 0.244 0.312 0.471 0.477 0.694c0.359 0.485 0.698 0.942 0.698 1.479C16.215 22.31 15.699 22.803 15.039 22.803zM9.046 18.019c-0.03-0.165-0.173-0.283-0.34-0.283s-0.31 0.12-0.34 0.283c-0.073 0.398-0.315 0.747-0.572 1.118c-0.344 0.495-0.7 1.007-0.7 1.695c0 0.924 0.708 1.649 1.612 1.649s1.612-0.724 1.612-1.649c0-0.687-0.356-1.2-0.7-1.695C9.361 18.767 9.119 18.417 9.046 18.019zM8.706 21.789c-0.517 0-0.921-0.42-0.921-0.958c0-0.471 0.28-0.874 0.576-1.301c0.119-0.17 0.238-0.343 0.345-0.525c0.107 0.182 0.227 0.355 0.345 0.525c0.296 0.426 0.577 0.829 0.577 1.301C9.627 21.369 9.222 21.789 8.706 21.789z" fill="#ECA900"></path>
                              </svg>