<svg xmlns:xlink="http://www.w3.org/1999/xlink" xmlns="http://www.w3.org/2000/svg" viewBox="0 0 36 36" class="fit right-margin-tiny" title="Site Icon" role="presentation" data-use="/cms/svg/site/ykmkv4_n6ok.36.svg#directions" width="36"  height="36" >
											<path d="M18.2 0.002a13.677 13.677 0 0 0-2.282 0.16a13.424 13.424 0 0 0-11.337 13.058C4.461 20.634 13.136 31.345 17.789 35.999c5.862-5.862 13.515-14.955 13.63-22.367l-7.664-0.12h0a5.938 5.938 0 0 1-2.093 3.28a5.938 5.938 0 0 1-3.676 1.278a5.938 5.938 0 0 1-4.188-1.742a5.938 5.938 0 0 1-1.731-4.192a5.938 5.938 0 0 1 1.74-4.188a5.938 5.938 0 0 1 4.192-1.731a5.938 5.938 0 0 1 4.19 1.74a5.928 5.928 0 0 1 1.731 4.192l-5.928 0l5.928 0h0a5.799 5.799 0 0 1-0.168 1.36l7.661 0.115a13.425 13.425 0 0 0-13.22-13.625Z" fill="#FFFFFF"></path>
										</svg>