<svg xmlns:xlink="http://www.w3.org/1999/xlink" xmlns="http://www.w3.org/2000/svg" viewBox="0 0 24 24" class="right-margin-tiny fit" role="presentation" title="Other Services Icon" data-use="/cms/svg/site/ykmkv4_n6ok.24.svg#other_services" width="47"  height="47" >
                                 <path d="M19.404 13.408c-1.017-1.298-2.292-2.7-3.183-3.647c-0.334-0.356-0.787-0.563-1.242-0.571c-0.426-0.004-0.831 0.162-1.144 0.475l-0.782 0.782L11.363 8.758c0.323-0.696 0.495-1.46 0.495-2.251c0-1.428-0.556-2.772-1.567-3.782l-0.129-0.129c0.292-0.52 0.218-1.19-0.223-1.632L8.974 0L0 8.974l0.965 0.965c0.258 0.258 0.6 0.4 0.965 0.4c0.238 0 0.466-0.061 0.669-0.175l0.128 0.128c1.01 1.01 2.354 1.567 3.782 1.567c0.79 0 1.554-0.171 2.251-0.495l1.69 1.69l-1.303 1.303l0.52 0.52l4.691-4.691c0.173-0.173 0.384-0.263 0.612-0.259c0.258 0.004 0.519 0.128 0.718 0.339c3.847 4.09 4.71 5.779 4.63 6.114l-4.964 4.964c-0.374 0.374-1.076 0.265-1.695 0.168c-0.577-0.09-1.075-0.168-1.385 0.142l-1.303 1.303l-4.691-4.691l0.782-0.782c0.304-0.304 0.351-1.274 0.351-1.823c0-0.707 0.148-1.696 0.854-2.401l0.308-0.308l-0.52-0.52l-0.308 0.308c-0.699 0.699-1.069 1.711-1.069 2.923c0 0.78-0.098 1.215-0.151 1.319l-1.287 1.287l5.733 5.733l1.815-1.815c0.108-0.045 0.499 0.016 0.76 0.056c0.713 0.112 1.691 0.264 2.329-0.375l4.976-4.976C21.359 16.377 20.941 15.368 19.404 13.408zM3.247 9.77l-0.092-0.092l1.149-1.149l-0.52-0.52l-1.149 1.149l-0.092-0.092l-0.52 0.52l0.006 0.006c-0.191 0.029-0.395-0.027-0.542-0.174l-0.444-0.444L8.974 1.042l0.444 0.444c0.147 0.147 0.205 0.35 0.174 0.542l-0.006-0.006l-0.52 0.52l0.092 0.092L5.896 5.896l0.52 0.52l3.262-3.262l0.092 0.092c0.871 0.871 1.351 2.03 1.351 3.262c0 1.232-0.48 2.39-1.351 3.262c-0.871 0.871-2.03 1.351-3.262 1.351S4.118 10.642 3.247 9.77zM9.428 10.991c0.308-0.201 0.598-0.434 0.863-0.701c0.266-0.266 0.499-0.556 0.701-0.864l1.541 1.541l-1.565 1.565L9.428 10.991zM23.324 22.002c0 0.492-0.191 0.955-0.54 1.303c-0.349 0.349-0.811 0.54-1.303 0.54s-0.955-0.191-1.303-0.54l-2.174-2.174l0.52-0.52l2.174 2.174c0.209 0.209 0.487 0.324 0.782 0.324c0.296 0 0.573-0.115 0.782-0.324c0.209-0.209 0.324-0.487 0.324-0.782c0-0.296-0.115-0.573-0.324-0.782l-2.174-2.174l0.52-0.52l2.174 2.174C23.132 21.048 23.324 21.51 23.324 22.002z" fill="#ECA900"></path>
                              </svg>