<svg xmlns:xlink="http://www.w3.org/1999/xlink" xmlns="http://www.w3.org/2000/svg" viewBox="0 0 36 36" class="quote-icon top-margin-tiny" role="presentation" title="Quote Icon" data-use="/cms/svg/site/ykmkv4_n6ok.36.svg#quotes" width="39"  height="39" >
								<path d="M8.013 15.466a8.045 8.045 0 0 1 6.48 1.483a7.661 7.661 0 0 1 0.231 12.059a8.034 8.034 0 0 1-5.245 1.86a9.036 9.036 0 0 1-7.602-4.26a14.634 14.634 0 0 1-1.877-6.96c0.309-6.651 3.214-11.288 8.768-13.765a11.187 11.187 0 0 1 2.006-0.557l0.977-0.137a1.55 1.55 0 0 1 1.954 1.62v1.628a1.607 1.607 0 0 1-1.483 1.62c-2.983 0.549-4.217 1.997-4.551 5.451m4.354-8.957c-6.583 0.969-10.071 7.225-10.302 13.174a10.971 10.971 0 0 0 1.568 6.034a7.495 7.495 0 0 0 6.265 3.48a6.613 6.613 0 0 0 4.148-1.466a6.055 6.055 0 0 0-0.231-9.514a6.322 6.322 0 0 0-5.245-1.166a1.573 1.573 0 0 1-0.549 0.077a1.614 1.614 0 0 1-1.646-1.543a2.571 2.571 0 0 1 0-0.771c0.394-3.326 1.568-5.648 5.794-6.42 0.163 0 0.163-0.077 0.163-0.077m14.476 7.105a8.038 8.038 0 0 1 6.48 1.483a7.661 7.661 0 0 1 0.231 12.059a8.002 8.002 0 0 1-5.245 1.86a9.021 9.021 0 0 1-7.594-4.26a14.731 14.731 0 0 1-1.886-6.96c0.317-6.651 3.214-11.288 8.777-13.765a11.097 11.097 0 0 1 1.997-0.557l0.977-0.137a1.55 1.55 0 0 1 1.954 1.62v1.628a1.607 1.607 0 0 1-1.483 1.62c-2.974 0.549-4.217 1.997-4.551 5.451m4.363-8.957c-6.591 0.969-10.071 7.225-10.311 13.174a10.971 10.971 0 0 0 1.568 6.034a7.495 7.495 0 0 0 6.265 3.48a6.613 6.613 0 0 0 4.148-1.466a6.055 6.055 0 0 0-0.231-9.514a6.322 6.322 0 0 0-5.245-1.166a1.573 1.573 0 0 1-0.549 0.077a1.614 1.614 0 0 1-1.646-1.543a2.571 2.571 0 0 1 0-0.771c0.394-3.326 1.568-5.648 5.794-6.42 0.154 0 0.154-0.077 0.154-0.077" fill="#ECA900"></path>
							</svg>