<svg xmlns:xlink="http://www.w3.org/1999/xlink" xmlns="http://www.w3.org/2000/svg" viewBox="0 0 24 24" class="values-icon" role="presentation" data-use="/cms/svg/site/ykmkv4_n6ok.24.svg#honest" width="47"  height="47" >
               <path d="M23.998 15.426L23.998 15.426L23.082 6.936c-0.011-0.105-0.065-0.203-0.148-0.268c-0.083-0.066-0.19-0.096-0.294-0.084l-3.242 0.388c-0.151 0.018-0.276 0.118-0.327 0.261c-0.009 0.026-0.018 0.053-0.026 0.081c-0.042-0.057-0.098-0.104-0.165-0.132c-0.076-0.032-1.873-0.798-4.023-1.315C11.978 5.175 9.906 5.268 8.7 6.144l-3.728 0.084L1.79 5.689c-0.104-0.018-0.213 0.008-0.298 0.069c-0.086 0.061-0.144 0.156-0.16 0.261L0.005 14.454c-0.018 0.112 0.013 0.226 0.086 0.314c0.072 0.087 0.178 0.14 0.291 0.145l3.234 0.127c0.173 0.006 0.327-0.097 0.387-0.258l0.281-0.752l5.74 4.088c0.014 0.01 0.029 0.019 0.045 0.028c0.021 0.011 0.523 0.273 1.13 0.389c0.195 0.037 0.382 0.056 0.556 0.056c0.043 0 0.085-0.001 0.132-0.004l0.004 0c0.039-0.002 0.077-0.006 0.118-0.011l0.01-0.001c0.036-0.004 0.071-0.009 0.11-0.016l0.012-0.002c0.033-0.006 0.067-0.013 0.101-0.022l0.013-0.003c0.031-0.008 0.063-0.017 0.094-0.027l0.013-0.004c0.029-0.009 0.059-0.02 0.089-0.032l0.012-0.005c0.028-0.011 0.056-0.023 0.083-0.036l0.011-0.005c0.027-0.013 0.053-0.026 0.078-0.04l0.009-0.005c0.026-0.014 0.05-0.029 0.074-0.044l0.008-0.005c0.024-0.016 0.047-0.032 0.07-0.048l0.005-0.004c0.023-0.017 0.046-0.035 0.069-0.054c0.093-0.077 0.177-0.166 0.251-0.266c0.288 0.098 0.562 0.148 0.818 0.148c0 0 0 0 0 0c0.066 0 0.131-0.004 0.194-0.01c0.489-0.05 0.897-0.285 1.213-0.696c0.064-0.084 0.093-0.189 0.079-0.293c-0.008-0.062-0.03-0.12-0.064-0.17c0.089 0.011 0.177 0.016 0.262 0.016c0 0 0 0 0 0c0.042 0 0.085-0.001 0.126-0.004c0.632-0.038 1.177-0.351 1.619-0.932c0.054-0.071 0.083-0.159 0.081-0.248c0.013 0.001 0.027 0.001 0.04 0.001c0.3 0 0.597-0.112 0.839-0.317l0.001-0.001c0.005-0.002 0.009-0.005 0.013-0.008c0.278-0.184 0.79-0.832 1.198-1.381c0.022 0.119 0.035 0.187 0.036 0.19c0.003 0.015 0.007 0.03 0.012 0.046l0.401 1.257c0.052 0.164 0.203 0.275 0.375 0.276l3.236 0.03l0.004 0c0.112 0 0.219-0.047 0.294-0.131C23.973 15.651 24.01 15.539 23.998 15.426zM23.161 15.068l-2.503-0.023l-0.306-0.962c-0.253-1.321-0.846-5-0.591-6.355l2.576-0.308L23.161 15.068zM3.712 13.29l-0.353 0.945l-2.501-0.098l1.195-7.598l2.557 0.433C4.799 8.336 4.029 11.983 3.712 13.29zM13.541 12.721c-0.162 0.147-0.175 0.399-0.027 0.56c0.461 0.508 1.685 1.738 3.191 2.299c-0.291 0.365-0.619 0.554-1 0.577c-0.967 0.059-1.958-0.942-1.968-0.953c-0.009-0.01-0.019-0.019-0.03-0.028l-1.404-1.174c-0.167-0.141-0.419-0.118-0.559 0.05c-0.141 0.168-0.118 0.419 0.05 0.559L13.183 15.774c0.135 0.135 0.795 0.762 1.647 1.044c-0.043 0.026-0.082 0.059-0.114 0.1c-0.18 0.234-0.397 0.362-0.664 0.389c-0.819 0.086-1.796-0.741-1.805-0.749l-1.408-1.178c-0.081-0.068-0.184-0.1-0.29-0.091c-0.105 0.009-0.201 0.059-0.269 0.141c-0.068 0.081-0.1 0.184-0.091 0.29c0.009 0.105 0.059 0.201 0.141 0.269l1.402 1.172c0.028 0.024 0.273 0.231 0.636 0.444c-0.439 0.366-1.225 0.132-1.666-0.046c-0.017-0.007-0.033-0.013-0.052-0.021c-0.015-0.006-0.029-0.012-0.043-0.018l-0.022 0.05l0.018-0.051c-0.013-0.006-0.026-0.011-0.037-0.016l-0.036-0.016l-0.023 0.049l0.019-0.051l-0.067-0.032L4.54 13.238c0.1-0.431 0.335-1.476 0.535-2.602c0.291-1.643 0.404-2.861 0.336-3.624l2.465-0.056c-0.278 0.361-0.495 0.761-0.648 1.193c-0.238 0.672-0.296 1.382-0.158 1.947c0.151 0.613 0.521 1.021 1.017 1.12c0.521 0.103 1.388-0.1 2.559-1.649l1.02-0.17c0.668 0.442 3.823 2.534 5.166 3.534c0.479 0.356 1.047 0.837 1.184 1.398c0.04 0.162-0.023 0.349-0.165 0.488c-0.136 0.134-0.312 0.189-0.47 0.147c-1.043-0.275-2.269-1.103-3.279-2.216C13.955 12.586 13.704 12.574 13.541 12.721zM11.755 8.583c-0.022 0-0.044 0.002-0.066 0.005l-1.332 0.223c-0.103 0.017-0.193 0.073-0.255 0.157c-1.118 1.528-1.746 1.492-1.861 1.47c-0.248-0.049-0.357-0.353-0.401-0.53c-0.204-0.835 0.162-2.191 1.244-3.06c0.972-0.78 2.901-0.853 5.577-0.211c2.087 0.501 3.887 1.267 3.905 1.275c0.126 0.054 0.266 0.039 0.374-0.032c-0.08 0.765-0.02 1.937 0.178 3.487c0.067 0.525 0.149 1.086 0.244 1.668c-0.057 0.029-0.107 0.071-0.145 0.125c-0.167 0.236-0.346 0.478-0.521 0.706c-0.273-0.676-0.883-1.193-1.392-1.572c-1.529-1.138-5.295-3.62-5.333-3.645C11.908 8.605 11.832 8.583 11.755 8.583z" fill="#ECA900"></path>
            </svg>