<svg xmlns:xlink="http://www.w3.org/1999/xlink" xmlns="http://www.w3.org/2000/svg" viewBox="0 0 24 24" class="right-margin-tiny fit" role="presentation" title="Septic to Sewer Conversion Icon" data-use="/cms/svg/site/ykmkv4_n6ok.24.svg#septic" width="47"  height="47" >
                                 <path d="M13.8 16.422c0.056-0.238 0.295-0.385 0.533-0.329c0.928 0.218 2.066-0.049 3.042-0.714c0.809-0.55 1.347-1.273 1.443-1.933c0.035-0.242 0.26-0.41 0.502-0.375c0.242 0.035 0.41 0.26 0.375 0.502c-0.131 0.915-0.795 1.84-1.821 2.538c-0.899 0.612-1.925 0.941-2.88 0.941c-0.297 0-0.587-0.032-0.865-0.097C13.892 16.899 13.744 16.66 13.8 16.422zM3.619 11.557h18.091v0.946c0 1.809-0.838 3.491-2.361 4.739c-1.201 0.984-2.731 1.607-4.173 1.714v0.9l2.01 2.01v2.134H5.749v-1.005H2.734v-3.9H6.008l1.751-1.751v-1.141L5.749 14.194V12.443H2.734v-9.045H2.231V0h9.428v3.398h-0.503v7.597h-0.885V3.398H3.619V11.557zM3.116 2.513h7.658V0.885H3.116V2.513zM5.749 22.11v-2.129H3.619v2.129H5.749zM20.823 12.443H6.634v1.384l2.01 2.01v1.874l-2.01 2.01v3.394h9.667v-0.881l-2.01-2.01v-1.257c-1.543-0.06-2.477-0.441-3.764-1.037l0.372-0.803c1.29 0.598 2.165 0.963 3.833 0.963c2.544 0 6.091-2.126 6.091-5.588V12.443zM12.221 10.051v0.885h9.548v-0.885H12.221z" fill="#ECA900"></path>
                              </svg>