<svg xmlns:xlink="http://www.w3.org/1999/xlink" xmlns="http://www.w3.org/2000/svg" viewBox="0 0 24 24" class="right-margin-tiny fit" role="presentation" title="Sewer Services Icon" data-use="/cms/svg/site/ykmkv4_n6ok.24.svg#sewer" width="39"  height="39" >

													<path d="M23.477 15.105v-0.908h-3.208V14.127c0-0.538-0.439-0.977-0.977-0.977h-2.093c-0.538 0-0.977 0.439-0.977 0.977v0.07H13.535c-1.77 0-3.208-1.44-3.208-3.208V7.779h0.07c0.538 0 0.977-0.439 0.977-0.977V4.709c0-0.538-0.439-0.977-0.977-0.977h-0.07V0h-0.908v3.732H2.478V0h-0.908v3.732H1.501C0.962 3.732 0.524 4.17 0.524 4.709v2.093c0 0.538 0.439 0.977 0.977 0.977h0.07v4.778c0 5.733 4.663 10.396 10.396 10.396h4.255v0.07c0 0.538 0.439 0.977 0.977 0.977h2.093c0.538 0 0.977-0.439 0.977-0.977v-0.07h3.208v-0.908h-3.208V15.105H23.477zM1.431 6.802V4.709c0-0.038 0.032-0.07 0.07-0.07h8.895c0.038 0 0.07 0.032 0.07 0.07v2.093c0 0.038-0.032 0.07-0.07 0.07H1.501C1.463 6.872 1.431 6.84 1.431 6.802zM11.965 22.046c-5.232 0-9.488-4.256-9.488-9.488V7.779h6.941v3.208c0 2.27 1.847 4.116 4.116 4.116h2.686v6.941H11.965zM19.36 23.023c0 0.038-0.032 0.07-0.07 0.07h-2.093c-0.038 0-0.07-0.032-0.07-0.07V14.127c0-0.038 0.032-0.07 0.07-0.07h2.093c0.038 0 0.07 0.032 0.07 0.07V23.023z" fill="#ECA900"></path>

												</svg>