<svg xmlns:xlink="http://www.w3.org/1999/xlink" xmlns="http://www.w3.org/2000/svg" viewBox="0 0 24 24" class="right-margin-tiny fit" role="presentation" title="Sewer Line Installation &amp; Replacement Icon" data-use="/cms/svg/site/ykmkv4_n6ok.24.svg#sewer_line" width="47"  height="47" >
                                 <path d="M19.414 9.198l1 1L22.517 8.095L15.413 0.991L13.31 3.094l1 1L10.338 8.066V2.853h1V0H1.483v2.853h1v18.295H1.483V24h9.854v-2.853h-1v-2.873L19.414 9.198zM15.413 2.196L21.313 8.095l-0.898 0.898L14.515 3.094L15.413 2.196zM2.336 0.852h8.15v1.149H2.336V0.852zM10.486 23.148H2.336v-1.149h8.15V23.148zM3.335 21.147V2.853h6.149v6.067l-1.376 1.376l0.602 0.602l6.2-6.2l3.898 3.898L9.486 17.922v3.227H3.335z" fill="#ECA900"></path>
                              </svg>