<svg xmlns:xlink="http://www.w3.org/1999/xlink" xmlns="http://www.w3.org/2000/svg" viewBox="0 0 24 24" class="rate1" role="presentation" data-use="/cms/svg/admin/ufphi5p03ss.24.svg#rating_star" width="24"  height="24" >

			<path d="M5.295 23.025C5.079 23.025 4.865 22.959 4.682 22.825C4.342 22.578 4.183 22.151 4.278 21.742L5.928 14.608L0.425 9.811C0.108 9.534-0.013 9.096 0.118 8.696C0.247 8.296 0.603 8.013 1.019 7.977L8.271 7.351L11.105 0.629C11.267 0.241 11.646-0.01 12.065-0.01C12.485-0.01 12.864 0.241 13.027 0.628L15.86 7.351L23.112 7.977C23.53 8.013 23.885 8.296 24.015 8.696C24.144 9.096 24.023 9.534 23.707 9.811L18.204 14.608L19.853 21.742C19.948 22.151 19.788 22.578 19.449 22.825C19.107 23.072 18.652 23.09 18.296 22.874L12.065 19.093L5.835 22.874C5.669 22.974 5.481 23.025 5.295 23.025Z" fill="#FFD80A"></path>

		</svg>