<svg xmlns:xlink="http://www.w3.org/1999/xlink" xmlns="http://www.w3.org/2000/svg" viewBox="0 0 24 24" class="right-margin-tiny fit" role="presentation" title="Tankless Electric Water Heater Icon" data-use="/cms/svg/site/ykmkv4_n6ok.24.svg#tankless" width="39"  height="39" >

													<path d="M18.514 0H5.486C4.687 0 4.036 0.651 4.036 1.45v17.25l3.292 2.741h1.718v2.559h0.896v-2.559h4.115v2.559h0.896v-2.559H16.673l3.292-2.741V1.45C19.965 0.651 19.314 0 18.514 0zM19.069 18.28l-2.72 2.265H7.652L4.932 18.28V1.45C4.932 1.144 5.18 0.896 5.486 0.896h13.028c0.305 0 0.554 0.248 0.554 0.554V18.28zM17.726 2.359l0.574 0.689l-1.628 1.356H7.328l-1.628-1.358l0.574-0.689l1.379 1.15h8.695L17.726 2.359zM13.951 14.979c0-1.075-0.875-1.951-1.951-1.951c-1.075 0-1.951 0.875-1.951 1.951s0.875 1.951 1.951 1.951C13.076 16.932 13.951 16.056 13.951 14.979zM10.946 14.979c0-0.583 0.474-1.055 1.055-1.055s1.055 0.474 1.055 1.055s-0.474 1.055-1.055 1.055S10.946 15.562 10.946 14.979zM9.495 18.04h5.012v0.896H9.495V18.04z" fill="#ECA900"></path>

												</svg>