<svg xmlns:xlink="http://www.w3.org/1999/xlink" xmlns="http://www.w3.org/2000/svg" viewBox="0 0 24 24" class="right-margin-tiny fit" role="presentation" title="Thermostatic Pressure Balancing Icon" data-use="/cms/svg/site/ykmkv4_n6ok.24.svg#thermostat" width="47"  height="47" >
                                 <path d="M17.803-0.001H6.196C5.689-0.001 5.277 0.412 5.277 0.918v22.163c0 0.507 0.412 0.919 0.919 0.919h11.608c0.507 0 0.919-0.412 0.919-0.919V0.918C18.722 0.412 18.31-0.001 17.803-0.001zM17.935 23.081c0 0.072-0.059 0.131-0.131 0.131H6.196c-0.072 0-0.131-0.059-0.131-0.131V0.918c0-0.072 0.059-0.131 0.131-0.131h11.608c0.072 0 0.131 0.059 0.131 0.131V23.081zM14.837 5.398h1.142v-0.787h-1.142V2.639H9.334v1.971h-1.142v0.787h1.142v1.852h-1.837v0.787h1.837v1.852h-1.142v0.787h1.142v1.853h-1.837v0.787h1.837v1.852h-1.142v0.787h1.142v2.226h0.787V3.426h1.571v14.902c-0.815 0.181-1.428 0.908-1.428 1.777c0 1.004 0.818 1.822 1.822 1.822s1.822-0.818 1.822-1.822c0-0.869-0.612-1.597-1.428-1.777V3.426h1.571v14.758h0.787v-2.226h1.142v-0.787h-1.142v-1.852h1.837v-0.787h-1.837V10.678h1.142v-0.787h-1.142V8.037h1.837v-0.787h-1.837V5.398zM13.119 20.105c0 0.57-0.463 1.034-1.034 1.034s-1.034-0.463-1.034-1.034s0.463-1.034 1.034-1.034S13.119 19.536 13.119 20.105z" fill="#ECA900"></path>
                              </svg>