<svg xmlns:xlink="http://www.w3.org/1999/xlink" xmlns="http://www.w3.org/2000/svg" viewBox="0 0 24 24" class="right-margin-tiny fit" role="presentation" title="Water Filtration Icon" data-use="/cms/svg/site/ykmkv4_n6ok.24.svg#filter" width="39"  height="39" >

													<path d="M22.966 18.488l-1.31 0.201c0.607-0.954 0.934-2.058 0.934-3.218c0-3.323-2.701-6.024-6.024-6.024c-0.552 0-1.084 0.075-1.601 0.216c-0.653-1.029-1.496-2.284-2.595-3.91c-0.944-1.401-2.068-3.077-3.419-5.115L8.534 0l-0.417 0.633c-1.365 2.058-2.505 3.75-3.454 5.155C0.894 11.36 0 12.685 0 15.466c0 4.704 3.83 8.534 8.534 8.534c2.485 0 4.714-1.074 6.275-2.771c0.557 0.171 1.145 0.261 1.757 0.261c0.964 0 1.918-0.231 2.766-0.668l-0.462-0.894c-0.703 0.366-1.501 0.557-2.304 0.557c-0.361 0-0.718-0.04-1.059-0.115c0.979-1.391 1.561-3.077 1.561-4.904c0-1.752-0.296-2.826-1.546-4.909c0.336-0.07 0.688-0.11 1.044-0.11c2.766 0 5.02 2.254 5.02 5.02c0 0.974-0.276 1.903-0.788 2.701l-0.216-1.441l-0.994 0.151l0.462 3.067l3.067-0.462L22.966 18.488zM14.502 20.039C12.761 19.251 11.546 17.499 11.546 15.466c0-0.974 0.276-1.903 0.788-2.701l0.216 1.441l0.994-0.151l-0.462-3.067l-3.067 0.462l0.151 0.994l1.31-0.201C10.873 13.202 10.542 14.307 10.542 15.466c0 2.334 1.335 4.352 3.278 5.356c-1.36 1.345-3.228 2.174-5.286 2.174c-4.151 0-7.53-3.378-7.53-7.53c0-2.475 0.773-3.619 4.488-9.116c0.853-1.265 1.857-2.751 3.042-4.533c1.17 1.762 2.164 3.238 3.007 4.493C15.461 12.133 16.064 13.032 16.064 15.466C16.064 17.188 15.476 18.769 14.502 20.039z" fill="#ECA900"></path>

												</svg>