<svg xmlns:xlink="http://www.w3.org/1999/xlink" xmlns="http://www.w3.org/2000/svg" viewBox="0 0 24 24" class="right-margin-tiny fit" role="presentation" title="Water Heaters Icon" data-use="/cms/svg/site/ykmkv4_n6ok.24.svg#water_heater" width="39"  height="39" >

													<path d="M17.289 0H6.716C5.436 0 4.399 1.037 4.399 2.317v16.902c0 1.274 1.037 2.317 2.317 2.317h0.701l0.354 1.415c0.152 0.622 0.707 1.049 1.348 1.049h5.543c0.573 0 1.098-0.36 1.299-0.902l0.585-1.561h0.738c1.274 0 2.317-1.037 2.317-2.317V2.317C19.6 1.037 18.564 0 17.289 0zM6.716 0.927h10.573c0.768 0 1.39 0.622 1.39 1.39v0.543H5.326V2.317C5.326 1.549 5.948 0.927 6.716 0.927zM15.094 22.768c-0.067 0.177-0.244 0.299-0.433 0.299H9.119c-0.213 0-0.396-0.146-0.451-0.348l-0.299-1.189H15.558L15.094 22.768zM17.289 20.61H16.228H7.777H6.716c-0.768 0-1.39-0.622-1.39-1.39V3.78h13.354v15.433C18.679 19.982 18.051 20.61 17.289 20.61zM12.003 12.909c-0.61 0-1.177 0.238-1.61 0.665c-0.884 0.884-0.884 2.329 0 3.22c0.445 0.445 1.024 0.665 1.61 0.665c0.585 0 1.165-0.22 1.61-0.665c0.884-0.89 0.884-2.329 0-3.22C13.179 13.146 12.606 12.909 12.003 12.909zM12.954 16.14c-0.256 0.256-0.591 0.396-0.951 0.396c-0.36 0-0.701-0.14-0.951-0.396c-0.524-0.524-0.524-1.384 0-1.909c0.262-0.262 0.61-0.396 0.951-0.396c0.348 0 0.689 0.134 0.951 0.396C13.478 14.756 13.478 15.61 12.954 16.14zM12.003 11.396c-1.012 0-1.963 0.396-2.683 1.11c-1.476 1.476-1.476 3.884 0 5.36c0.738 0.738 1.707 1.11 2.683 1.11c0.97 0 1.939-0.372 2.677-1.11c0.713-0.713 1.11-1.665 1.11-2.677c0-1.012-0.396-1.963-1.11-2.677C13.966 11.787 13.015 11.396 12.003 11.396zM14.027 17.207c-1.116 1.116-2.933 1.116-4.049 0c-1.116-1.116-1.116-2.933 0-4.049c0.543-0.543 1.262-0.841 2.024-0.841c0.762 0 1.482 0.299 2.024 0.841c0.543 0.543 0.841 1.262 0.841 2.024C14.862 15.951 14.57 16.665 14.027 17.207zM16.631 6.213c0 0.256-0.207 0.463-0.463 0.463H7.832c-0.256 0-0.463-0.207-0.463-0.463c0-0.256 0.207-0.463 0.463-0.463H16.167C16.423 5.75 16.631 5.957 16.631 6.213z" fill="#ECA900"></path>

												</svg>