<svg xmlns:xlink="http://www.w3.org/1999/xlink" xmlns="http://www.w3.org/2000/svg" viewBox="0 0 24 24" class="right-margin-tiny fit" role="presentation" title="Whole Home Repiping Icon" data-use="/cms/svg/site/ykmkv4_n6ok.24.svg#home_repiping" width="47"  height="47" >
                                 <path d="M18.308 13.122H8.214c-0.618 0-1.122-0.503-1.122-1.122s0.503-1.122 1.122-1.122h10.094c2.72 0 4.934-2.213 4.934-4.934c0-2.72-2.213-4.934-4.934-4.934H4.065V0.001H0.758v5.83h3.307V4.822h14.243c0.618 0 1.122 0.503 1.122 1.122s-0.503 1.122-1.122 1.122H8.214c-2.72 0-4.934 2.213-4.934 4.934c0 2.72 2.213 4.934 4.934 4.934h10.094c0.618 0 1.122 0.503 1.122 1.122s-0.503 1.122-1.122 1.122H4.065v-1.009H0.758v5.83h3.307v-1.009h14.243c2.72 0 4.934-2.213 4.934-4.934S21.028 13.122 18.308 13.122zM3.281 5.047H1.541V0.785h1.739V5.047zM3.281 23.216H1.541v-4.262h1.739V23.216zM18.308 22.206H4.065v-2.243h14.243c1.051 0 1.906-0.855 1.906-1.906s-0.855-1.906-1.906-1.906H8.214c-2.288 0-4.15-1.862-4.15-4.15s1.862-4.15 4.15-4.15h10.094c1.051 0 1.906-0.855 1.906-1.906s-0.855-1.906-1.906-1.906H4.065V1.794h14.243c2.288 0 4.15 1.862 4.15 4.15c0 2.288-1.862 4.15-4.15 4.15H8.214c-1.051 0-1.906 0.855-1.906 1.906s0.855 1.906 1.906 1.906h10.094c2.288 0 4.15 1.862 4.15 4.15S20.596 22.206 18.308 22.206z" fill="#ECA900"></path>
                              </svg>