<?xml version="1.0" encoding="UTF-8" standalone="no"?>
<svg xmlns="http://www.w3.org/2000/svg" viewBox="0 0 24 24">
<style>
	g path { stroke: none; }
	g.root { display: none; }
	g.root:target { display: inline; }
	g line { stroke: black; }
	g circle { stroke: black; }
	g polyline { stroke: black; }
</style>
<g class="root" id="backwater" data-name="backwater">
	<path d="M7.874 3.937h-0.818v-1.008c0-0.503 0.409-0.914 0.914-0.914H12c0.503 0 0.914 0.409 0.914 0.914v1.008h-0.818v-1.008c0-0.052-0.042-0.095-0.095-0.095H7.968c-0.052 0-0.095 0.042-0.095 0.095V3.937zM7.874 12.599H12.095V10.993h0.818V12.599h8.253v-1.008H24v11.401h-2.834v-1.008H2.834v1.008H0V11.591h2.834V12.599h4.222V10.897h-1.103c-0.503 0-0.914-0.409-0.914-0.914V5.449c0-0.503 0.409-0.914 0.914-0.914h7.39L16.87 1.008h6.217C23.591 1.008 24 1.417 24 1.922v1.512c0 0.503-0.409 0.914-0.914 0.914h-4.87l-3.792 3.792v1.846c0 0.503-0.409 0.914-0.914 0.914H7.874V12.599zM5.952 10.079h7.559c0.052 0 0.095-0.042 0.095-0.095V7.799l4.271-4.271h5.209c0.052 0 0.095-0.042 0.095-0.095V1.922c0-0.052-0.042-0.095-0.095-0.095h-5.877l-3.528 3.528H5.952c-0.052 0-0.095 0.042-0.095 0.095v4.535C5.858 10.037 5.9 10.079 5.952 10.079zM2.015 12.409H0.818v9.765h1.197V12.409zM21.985 22.174H23.182V12.409h-1.197V22.174zM21.166 13.417H2.834v7.75h18.331V13.417z" />
</g>
<g class="root" id="bathtub" data-name="bathtub">
	<path d="M3.5 9.5V6c0-0.825 0.675-1.5 1.5-1.5h0.5c0.825 0 1.5 0.675 1.5 1.5v0.5h-0.5v1h2V6.5h-0.5V6c0-1.38-1.12-2.5-2.5-2.5h-0.5C3.62 3.5 2.5 4.62 2.5 6v3.5H0l0 1.88l0.365 0.105C0.375 11.485 1.5 11.825 1.5 12.5v2c0 2.085 1.43 3.84 3.355 4.345L4.5 19.92V20.5h1v-0.42l0.365-1.09c0.045 0 0.09 0.005 0.135 0.005h12c0.045 0 0.09-0.005 0.135-0.005L18.5 20.08V20.5h1v-0.58l-0.355-1.07C21.07 18.34 22.5 16.585 22.5 14.5v-2c0-0.675 1.125-1.015 1.135-1.02l0.365-0.1V9.5H3.5zM23 10.645c-0.675 0.285-1.5 0.885-1.5 1.855v2c0 1.93-1.57 3.5-3.5 3.5H6c-1.93 0-3.5-1.57-3.5-3.5v-2c0-0.97-0.825-1.57-1.5-1.855V10.5h22V10.645zM17 16.5c0-0.275 0.225-0.5 0.5-0.5c1.105 0 2-0.895 2-2v-1.295c0-0.59 0.23-1.145 0.645-1.56c0.195-0.195 0.51-0.195 0.705 0c0.195 0.195 0.195 0.51 0 0.705C20.625 12.08 20.5 12.385 20.5 12.705V14c0 1.655-1.345 3-3 3C17.225 17 17 16.775 17 16.5z" />
</g>
<g class="root" id="commerial" data-name="commerial">
	<path d="M7.265 10.604V7.491h0.843v3.113H7.265zM18.221 11.026h4.937V8.01c0-1.09-0.888-1.978-1.978-1.978h-4.67c-0.379 0-0.747 0.108-1.065 0.312L2.79 14.401l0.452 0.711l12.654-8.059c0.183-0.117 0.395-0.178 0.613-0.178h4.67c0.627 0 1.135 0.51 1.135 1.135v2.173h-6.325v0.843h0.929l-9.653 8.206v2.401l0.518 1.009v0.514H0.843v-0.514l0.518-1.009V7.491h-0.843v13.938L0 22.438v1.561h8.628v-1.561l-0.518-1.009v-1.808L18.221 11.026zM8.108 6.874H0.518v-1.201c0-0.643 0.431-1.219 1.048-1.401L15.94 0.052c0.195-0.063 0.414-0.07 0.624-0.018c0.476 0.119 0.818 0.506 0.875 0.986c0.059 0.48-0.18 0.937-0.608 1.163l-0.021 0.01L8.108 6.204V6.874zM7.265 5.665l9.181-4.23c0.17-0.096 0.163-0.263 0.157-0.312c-0.006-0.051-0.041-0.219-0.236-0.268c-0.063-0.015-0.124-0.014-0.18 0.004L1.804 5.082c-0.261 0.076-0.443 0.32-0.443 0.591v0.358h5.904V5.665z" />
</g>
<g class="root" id="complete" data-name="complete">
	<path d="M12 0A12.013 12.013-4.991 0 0 0 12a12.013 12.013 0 0 0 12 12a12.013 12.013 0 0 0 12-12A12.013 12.013-4.991 0 0 12 0Zm6.654 9.555l-7.664 7.663a1.262 1.262 0 0 1-0.886 0.367v0.519l-0.011-0.519a1.262 1.262 0 0 1-0.89-0.383l-3.866-4.006a1.254 1.254 0 0 1 0.032-1.771a1.247 1.247 0 0 1 0.869-0.351a1.242 1.242 0 0 1 0.902 0.383l2.981 3.089L16.879 7.785a1.246 1.246 0 0 1 0.886-0.367a1.246 1.246 0 0 1 0.886 0.367a1.255 1.255 0 0 1 0 1.773Z" />
</g>
<g class="root" id="custom" data-name="custom">
	<path d="M22.076 21.295c-0.513-0.004-1.026-0.001-1.595-0.001c0-0.257 0-0.437 0-0.617c0-1.675 0-3.35 0-5.025c0-0.117 0-0.235-0.001-0.351c-0.001-0.247-0.084-0.435-0.363-0.444c-0.281-0.008-0.368 0.189-0.394 0.425c-0.01 0.083-0.001 0.167-0.001 0.251c0.001 1.726 0.002 3.451 0.001 5.176c0 0.176-0.022 0.352-0.034 0.545c-1.606 0-3.156 0-4.783 0c0-0.217 0-0.412 0-0.607c-0.002-2.061-0.002-4.121-0.007-6.181c-0.001-0.659-0.077-0.75-0.704-0.753c-1.608-0.008-3.216-0.006-4.824 0.003c-0.557 0.003-0.635 0.093-0.637 0.646c-0.001 2.094 0 4.187-0.001 6.282c0 0.194-0.019 0.388-0.029 0.583c-1.631 0-3.208 0-4.815 0c0-0.25 0-0.45 0-0.65c0-2.764 0-5.528 0-8.292c0-0.134-0.001-0.268-0.001-0.402c-0.001-0.237-0.12-0.396-0.35-0.411c-0.268-0.015-0.384 0.166-0.398 0.416c-0.008 0.151-0.004 0.302-0.004 0.453c0 2.781 0 5.562-0.002 8.342c0 0.192-0.025 0.383-0.042 0.61c-0.257 0-0.456-0.001-0.654 0c-0.402 0.002-0.804-0.001-1.206 0.011c-0.216 0.007-0.338 0.134-0.346 0.352c-0.008 0.227 0.127 0.333 0.338 0.356c0.083 0.009 0.167 0.011 0.25 0.012c0.67 0.013 1.339 0.037 2.009 0.036c6.197-0.01 12.395-0.023 18.593-0.037c0.488-0.001 0.721-0.131 0.677-0.393C22.685 21.234 22.354 21.298 22.076 21.295zM14.155 21.249c-1.584 0-3.084 0-4.626 0c0-2.258 0-4.489 0-6.756c1.521 0 3.021 0 4.623 0C14.158 16.726 14.155 18.957 14.155 21.249zM23.679 7.805c-0.683-1.691-1.866-3.002-3.198-4.195c-0.3-0.268-0.485-0.235-0.835 0.078c-0.914 0.818-1.74 1.718-2.403 2.756c-0.604 0.944-1.054 1.943-1.025 3.108c0.057 0.362 0.091 0.73 0.175 1.087c0.385 1.633 1.743 2.736 3.432 2.804c1.915 0.078 3.39-0.847 3.925-2.491C24.09 9.901 24.098 8.845 23.679 7.805zM23.045 10.667c-0.475 1.522-2.031 2.326-3.698 1.956c-1.836-0.408-2.502-2.002-2.332-3.619c0.046-0.439 0.209-0.878 0.387-1.289c0.468-1.09 1.85-2.784 2.754-3.406c0.339 0.344 0.698 0.686 1.033 1.052c0.726 0.793 1.358 1.65 1.768 2.656C23.312 8.89 23.323 9.779 23.045 10.667zM0.889 11.808c-0.45 0.372-0.607 0.403-0.798 0.16c-0.175-0.222-0.111-0.377 0.307-0.724C3.999 8.268 7.599 5.293 11.199 2.317c0.077-0.064 0.163-0.12 0.233-0.191c0.267-0.268 0.51-0.229 0.787 0.006c0.959 0.809 1.932 1.604 2.899 2.404c0.245 0.203 0.489 0.408 0.734 0.61c0.211 0.176 0.444 0.355 0.222 0.663c-0.145 0.202-0.396 0.165-0.7-0.086c-0.955-0.79-1.908-1.582-2.862-2.371c-0.218-0.181-0.441-0.355-0.7-0.563c-1.359 1.119-2.678 2.203-3.994 3.289C5.507 7.987 3.199 9.898 0.889 11.808zM20.797 11.271c0 0.246-0.217 0.378-0.552 0.356c-1.152-0.077-2.175-1.117-2.229-2.267c-0.012-0.262 0.059-0.48 0.357-0.503c0.27-0.021 0.359 0.16 0.4 0.409c0.164 1.02 0.594 1.455 1.56 1.596C20.585 10.899 20.797 10.966 20.797 11.271z" />
</g>
<g class="root" id="custom_plumbing" data-name="custom plumbing">
	<path d="M23.619 4.1c-0.092-0.056-0.239-0.023-0.362-0.025c-0.545-0.002-1.089 0.01-1.634-0.004c-1.461-0.04-2.789 0.281-3.849 1.366c-0.021 0.022-0.063 0.026-0.069 0.028c-0.426-0.404-0.844-0.798-1.33-1.258c0.296-0.267 0.529-0.507 0.791-0.707c1.113-0.852 2.39-1.241 3.776-1.28c0.843-0.023 1.686-0.001 2.529-0.013c0.42-0.006 0.663-0.321 0.45-0.583c-0.101-0.123-0.327-0.197-0.499-0.201c-0.755-0.021-1.511-0.021-2.265-0.007c-1.952 0.037-3.696 0.615-5.103 2.023c-0.187 0.187-0.334 0.242-0.592 0.113c-0.567-0.284-1.17-0.338-1.795-0.191c-0.161 0.038-0.348 0.017-0.512-0.025c-1.56-0.394-3.099-0.34-4.611 0.209c-0.29 0.105-0.505 0.117-0.77-0.087c-0.587-0.456-1.211-0.397-1.754 0.117c-0.229 0.217-0.451 0.444-0.671 0.67c-0.677 0.691-0.717 1.228-0.115 1.992c1.676 2.128 3.474 4.151 5.446 6.006c1.636 1.54 3.346 3 5.043 4.472c0.664 0.575 1.28 0.51 1.911-0.11c0.226-0.221 0.448-0.445 0.668-0.672c0.578-0.598 0.632-1.166 0.131-1.832c-0.173-0.23-0.183-0.414-0.087-0.671c0.569-1.525 0.626-3.081 0.233-4.658c-0.041-0.164-0.066-0.354-0.022-0.512c0.178-0.646 0.081-1.259-0.209-1.841c-0.122-0.245-0.048-0.386 0.124-0.545c0.503-0.462 1.071-0.812 1.752-0.901c0.571-0.075 1.153-0.088 1.731-0.107c0.545-0.018 1.089 0 1.634-0.009c0.244-0.003 0.437-0.145 0.392-0.385C23.953 4.327 23.765 4.19 23.619 4.1zM17.596 15.517c-0.148 0.15-0.294 0.301-0.445 0.448c-0.446 0.434-0.571 0.441-1.067 0.042c-3.432-2.759-6.563-5.824-9.381-9.208c-0.303-0.365-0.613-0.723-0.901-1.099c-0.272-0.354-0.259-0.502 0.041-0.826c0.227-0.245 0.462-0.483 0.706-0.709c0.112-0.103 0.255-0.172 0.409-0.273c0.165 0.1 0.324 0.173 0.457 0.278c2.283 1.818 4.454 3.762 6.442 5.897c1.303 1.399 2.538 2.861 3.786 4.31C18.117 14.926 18.091 15.012 17.596 15.517zM17.769 12.653c-0.032 0.112-0.089 0.217-0.168 0.401c-2.668-3.187-5.547-6.073-8.779-8.768c1.381-0.474 2.659-0.524 3.949-0.218c0.411 0.097 0.795 0.167 1.231 0.054c0.641-0.165 1.214 0.079 1.683 0.529c0.531 0.511 1.054 1.031 1.558 1.569c0.526 0.561 0.747 1.204 0.501 1.984c-0.067 0.21-0.008 0.482 0.053 0.709C18.135 10.165 18.125 11.409 17.769 12.653zM0.875 14.625c-0.144 0.143-0.32 0.254-0.429 0.339c-0.362-0.003-0.538-0.313-0.397-0.579c0.055-0.105 0.153-0.189 0.239-0.276c1.449-1.453 2.897-2.906 4.35-4.354c0.204-0.202 0.405-0.499 0.75-0.242c0.226 0.169 0.15 0.446-0.199 0.796C3.755 11.75 2.318 13.191 0.875 14.625zM5.532 19.257c-0.144 0.144-0.318 0.259-0.427 0.347c-0.359 0.013-0.551-0.29-0.415-0.558c0.069-0.135 0.19-0.248 0.301-0.359c1.41-1.416 2.822-2.829 4.235-4.241c0.098-0.098 0.191-0.231 0.313-0.273c0.145-0.05 0.399-0.085 0.463-0.009c0.096 0.117 0.102 0.34 0.081 0.51c-0.012 0.1-0.149 0.186-0.235 0.273C8.41 16.384 6.973 17.822 5.532 19.257zM12.327 16.484c0.094 0.105 0.139 0.322 0.097 0.458c-0.046 0.153-0.205 0.277-0.328 0.4c-0.779 0.784-1.56 1.564-2.345 2.341c-0.12 0.117-0.265 0.209-0.426 0.333c-0.143-0.092-0.297-0.139-0.351-0.24c-0.055-0.102-0.034-0.264 0.002-0.386c0.027-0.092 0.126-0.164 0.2-0.238c0.83-0.832 1.659-1.664 2.491-2.495c0.074-0.074 0.149-0.179 0.239-0.198C12.045 16.432 12.26 16.408 12.327 16.484zM3.957 16.049c-0.087 0.141-0.133 0.258-0.215 0.341c-0.751 0.763-1.51 1.52-2.265 2.278c-0.181 0.181-0.388 0.267-0.598 0.063c-0.204-0.198-0.153-0.414 0.032-0.6c0.768-0.772 1.533-1.546 2.318-2.3c0.098-0.094 0.32-0.112 0.467-0.082C3.796 15.77 3.865 15.938 3.957 16.049zM5.099 14.022c0.04-0.11 0.127-0.209 0.211-0.294c0.579-0.586 1.162-1.166 1.744-1.748c0.199-0.199 0.427-0.373 0.673-0.113c0.234 0.248 0.081 0.476-0.126 0.68c-0.573 0.566-1.137 1.142-1.711 1.707c-0.121 0.119-0.267 0.211-0.352 0.278C5.203 14.539 5.005 14.275 5.099 14.022zM7.696 21.597c0.013 0.233-0.776 0.978-1.09 0.997c-0.053-0.037-0.214-0.091-0.253-0.191c-0.048-0.123-0.047-0.331 0.028-0.424c0.218-0.269 0.473-0.514 0.74-0.737c0.081-0.067 0.288-0.082 0.37-0.023C7.599 21.295 7.689 21.464 7.696 21.597z" />
</g>
<g class="root" id="date" data-name="date">
	<path id="Path_166" class="cls-1" transform="translate(0 0)" d="M23.16 3.057a2.886 2.886 0 0 0-2.138-0.891H18.884V1.4A1.158 1.158 0 0 0 17.815 0.242H16.889a1.158 1.158 0 0 0-1.158 1.158v0.766H8.302V1.4A1.194 1.194 0 0 0 7.126 0.242H6.289a1.176 1.176 0 0 0-1.158 1.176v0.748H3.064A3.064 3.064 0 0 0 0 5.213H0v15.463A3.046 3.046 0 0 0 3.047 23.758H16.889a3.171 3.171 0 0 0 2.245-0.944l3.919-3.919a3.118 3.118 0 0 0 0.944-2.245V5.248A2.957 2.957 0 0 0 23.16 3.057ZM1.907 20.658V8.312H22.126V16.044H18.474a2.138 2.138 0 0 0-2.138 2.138h0v3.563H3.064A1.176 1.176 0 0 1 1.907 20.658Z" />
</g>
<g class="root" id="datetime" data-name="datetime">
	<path d="M19.06 1.412H17.648v-0.706a0.706 0.706 0 0 0-0.706-0.705a0.706 0.706 0 0 0-0.705 0.705v0.706H7.76v-0.706a0.706 0.706 0 0 0-0.705-0.705a0.706 0.706 0 0 0-0.706 0.705v0.706H4.941a4.234 4.234 0 0 0-4.235 4.235v14.118A4.234 4.234-19.81 0 0 4.941 24H19.06a4.234 4.234 0 0 0 4.235-4.235v-14.118A4.234 4.234-19.81 0 0 19.06 1.412ZM12.001 19.765a7.06 7.06 0 0 1-4.991-2.068a7.061 7.061 0 0 1-2.068-4.991a7.06 7.06 0 0 1 2.068-4.991a7.061 7.061 0 0 1 4.991-2.068a7.06 7.06 0 0 1 4.991 2.068a7.061 7.061 0 0 1 2.068 4.991a7.06 7.06 0 0 1-2.068 4.991A7.061 7.061-19.81 0 1 12.001 19.765Zm3.53-7.059a0.708 0.708 0 0 1-0.208 0.498a0.704 0.704 0 0 1-0.498 0.207H12.001a0.704 0.704 0 0 1-0.705-0.705v-3.53a0.705 0.705 0 0 1 0.705-0.705a0.705 0.705 0 0 1 0.705 0.705v2.824h2.118a0.705 0.705 0 0 1 0.706 0.705Z" />
</g>
<g class="root" id="drain" data-name="drain">
	<path d="M23.056 7.328c-0.605-1.429-1.469-2.712-2.571-3.814c-1.102-1.102-2.385-1.967-3.814-2.571C15.191 0.317 13.62 0 12 0S8.809 0.317 7.328 0.943C5.899 1.547 4.616 2.413 3.515 3.514C2.413 4.616 1.547 5.899 0.943 7.328C0.317 8.809 0 10.38 0 12c0 1.62 0.317 3.191 0.943 4.672c0.605 1.429 1.469 2.712 2.571 3.814c1.102 1.102 2.385 1.967 3.814 2.571c1.479 0.626 3.052 0.943 4.672 0.943s3.191-0.317 4.672-0.943c1.429-0.605 2.712-1.469 3.814-2.571c1.102-1.102 1.967-2.385 2.571-3.814c0.626-1.479 0.943-3.052 0.943-4.672C24 10.38 23.682 8.809 23.056 7.328zM12 23.309c-6.236 0-11.31-5.074-11.31-11.31c0-6.236 5.074-11.31 11.31-11.31c6.236 0 11.31 5.074 11.31 11.31C23.309 18.236 18.236 23.309 12 23.309zM18.788 5.211c-1.814-1.814-4.224-2.811-6.788-2.811c-2.564 0-4.976 0.999-6.788 2.811C3.398 7.024 2.399 9.436 2.399 12c0 2.564 0.999 4.976 2.811 6.788c1.814 1.814 4.224 2.811 6.788 2.811c2.564 0 4.976-0.999 6.788-2.811c1.814-1.814 2.811-4.224 2.811-6.788C21.601 9.436 20.602 7.024 18.788 5.211zM12 20.91c-4.913 0-8.91-3.997-8.91-8.91c0-4.913 3.997-8.91 8.91-8.91s8.91 3.997 8.91 8.91C20.91 16.913 16.913 20.91 12 20.91zM6.537 9.66h11.035c0.736 0 1.336-0.599 1.336-1.336c0-0.736-0.599-1.336-1.336-1.336h-11.035c-0.736 0-1.336 0.599-1.336 1.336C5.201 9.06 5.8 9.66 6.537 9.66zM6.537 7.679h11.035c0.356 0 0.645 0.289 0.645 0.645c0 0.356-0.289 0.645-0.645 0.645h-11.035c-0.356 0-0.645-0.289-0.645-0.645C5.891 7.968 6.181 7.679 6.537 7.679zM17.571 10.786h-11.035c-0.736 0-1.336 0.599-1.336 1.336s0.599 1.336 1.336 1.336h11.035c0.736 0 1.336-0.599 1.336-1.336S18.308 10.786 17.571 10.786zM17.571 12.767h-11.035c-0.356 0-0.645-0.289-0.645-0.645c0-0.356 0.289-0.645 0.645-0.645h11.035c0.356 0 0.645 0.289 0.645 0.645C18.216 12.478 17.927 12.767 17.571 12.767zM17.571 14.583h-11.035c-0.736 0-1.336 0.599-1.336 1.336c0 0.736 0.599 1.336 1.336 1.336h11.035c0.736 0 1.336-0.599 1.336-1.336C18.906 15.182 18.308 14.583 17.571 14.583zM17.571 16.563h-11.035c-0.356 0-0.645-0.289-0.645-0.645s0.289-0.645 0.645-0.645h11.035c0.356 0 0.645 0.289 0.645 0.645S17.927 16.563 17.571 16.563zM12.346 6.626c0.764 0 1.385-0.622 1.385-1.385c0-0.764-0.622-1.385-1.385-1.385S10.959 4.477 10.959 5.24C10.959 6.004 11.581 6.626 12.346 6.626zM12.346 4.545c0.383 0 0.695 0.312 0.695 0.695c0 0.383-0.312 0.695-0.695 0.695s-0.695-0.312-0.695-0.695C11.649 4.856 11.962 4.545 12.346 4.545zM12.346 17.628c-0.764 0-1.385 0.622-1.385 1.385c0 0.764 0.622 1.385 1.385 1.385s1.385-0.622 1.385-1.385C13.731 18.25 13.109 17.628 12.346 17.628zM12.346 19.709c-0.383 0-0.695-0.312-0.695-0.695c0-0.383 0.312-0.695 0.695-0.695s0.695 0.312 0.695 0.695C13.041 19.398 12.729 19.709 12.346 19.709z" />
</g>
<g class="root" id="drain_camera" data-name="drain camera">
	<path d="M23.5 20V9.5c0-4.135-3.365-7.5-7.5-7.5S8.5 5.365 8.5 9.5v5c0 0.275-0.225 0.5-0.5 0.5s-0.5-0.225-0.5-0.5V4h0.5V1H0v3h0.5v10.5c0 4.135 3.365 7.5 7.5 7.5s7.5-3.365 7.5-7.5V9.5c0-0.275 0.225-0.5 0.5-0.5s0.5 0.225 0.5 0.5v10.5h-0.5v3h8v-3H23.5zM1 2h6v1H1V2zM16 8c-0.825 0-1.5 0.675-1.5 1.5v5c0 3.585-2.915 6.5-6.5 6.5S1.5 18.085 1.5 14.5V4h5v10.5c0 0.825 0.675 1.5 1.5 1.5s1.5-0.675 1.5-1.5V9.5c0-3.585 2.915-6.5 6.5-6.5s6.5 2.915 6.5 6.5v10.5H17.5V9.5C17.5 8.675 16.825 8 16 8zM23 22H17v-1h6V22z" />
</g>
<g class="root" id="filter" data-name="filter">
	<path d="M22.966 18.488l-1.31 0.201c0.607-0.954 0.934-2.058 0.934-3.218c0-3.323-2.701-6.024-6.024-6.024c-0.552 0-1.084 0.075-1.601 0.216c-0.653-1.029-1.496-2.284-2.595-3.91c-0.944-1.401-2.068-3.077-3.419-5.115L8.534 0l-0.417 0.633c-1.365 2.058-2.505 3.75-3.454 5.155C0.894 11.36 0 12.685 0 15.466c0 4.704 3.83 8.534 8.534 8.534c2.485 0 4.714-1.074 6.275-2.771c0.557 0.171 1.145 0.261 1.757 0.261c0.964 0 1.918-0.231 2.766-0.668l-0.462-0.894c-0.703 0.366-1.501 0.557-2.304 0.557c-0.361 0-0.718-0.04-1.059-0.115c0.979-1.391 1.561-3.077 1.561-4.904c0-1.752-0.296-2.826-1.546-4.909c0.336-0.07 0.688-0.11 1.044-0.11c2.766 0 5.02 2.254 5.02 5.02c0 0.974-0.276 1.903-0.788 2.701l-0.216-1.441l-0.994 0.151l0.462 3.067l3.067-0.462L22.966 18.488zM14.502 20.039C12.761 19.251 11.546 17.499 11.546 15.466c0-0.974 0.276-1.903 0.788-2.701l0.216 1.441l0.994-0.151l-0.462-3.067l-3.067 0.462l0.151 0.994l1.31-0.201C10.873 13.202 10.542 14.307 10.542 15.466c0 2.334 1.335 4.352 3.278 5.356c-1.36 1.345-3.228 2.174-5.286 2.174c-4.151 0-7.53-3.378-7.53-7.53c0-2.475 0.773-3.619 4.488-9.116c0.853-1.265 1.857-2.751 3.042-4.533c1.17 1.762 2.164 3.238 3.007 4.493C15.461 12.133 16.064 13.032 16.064 15.466C16.064 17.188 15.476 18.769 14.502 20.039z" />
</g>
<g class="root" id="globe" data-name="globe">
	<path d="M12 21.549a9.36 9.36 0 0 1-5.052-1.464l0.48-2.256a2.671 2.671 0 0 0-0.18-1.644l-0.732-1.584a0.587 0.587 0 0 0-0.456-0.336l-2.652-0.372a0.319 0.319 0 0 1-0.204-0.528l0.456-0.564a0.632 0.632 0 0 1 0.528-0.204l0.996 0.156a0.856 0.856 0 0 0 0.348-0.024l1.344-0.3a0.253 0.253 0 0 0 0.12-0.048l0.888-0.432a0.566 0.566 0 0 0 0.324-0.432l0.36-2.652a0.564 0.564 0 0 0-0.36-0.612l-0.456-0.168a0.6 0.6 0 0 1-0.396-0.528a0.586 0.586 0 0 1 0.528-0.612l0.66-0.048a0.583 0.583 0 0 0 0.528-0.612l-0.048-0.804l-0.084-1.596a0.536 0.536 0 0 0-0.372-0.504l-0.36-0.12a9.394 9.394 0 0 1 3.768-0.756a8.304 8.304 0 0 1 2.124 0.252l0.072 1.416v0.048l-0.18 1.764a0.258 0.258 0 0 0 0.048 0.18l0.204 0.3a0.253 0.253 0 0 0 0.384 0.048l0.528-0.48a0.277 0.277 0 0 1 0.432 0.132l0.024 0.072a0.24 0.24 0 0 0 0.228 0.18l0.6 0.024a0.161 0.161 0 0 0 0.108-0.024l0.504-0.204a0.246 0.246 0 0 1 0.324 0.324l-0.276 0.912a0.232 0.232 0 0 1-0.228 0.18l-0.672 0.024h-0.084l-0.852-0.252a0.454 0.454 0 0 0-0.18 0l-0.408 0.18a0.298 0.298 0 0 1-0.204 0l-0.528-0.252a0.258 0.258 0 0 0-0.228 0.024l-0.684 0.48a0.226 0.226 0 0 0-0.096 0.204l0.096 0.78a0.215 0.215 0 0 1-0.144 0.252l-0.504 0.228a0.26 0.26 0 0 0-0.084 0.408l0.36 0.324a0.346 0.346 0 0 0 0.228 0.072l0.648-0.144a0.329 0.329 0 0 1 0.156 0.024l0.3 0.12a5.488 5.488 0 0 1 0.48 0.36a0.272 0.272 0 0 0 0.384-0.048a0.34 0.34 0 0 1 0.18-0.132l0.504-0.048a0.208 0.208 0 0 0 0.144-0.072l0.06-0.06a0.24 0.24 0 0 1 0.396 0.108l0.252 0.708c0.024 0.024 0.024 0.048 0.048 0.072l0.288 0.384a0.274 0.274 0 0 1-0.024 0.348l-0.708 0.66a0.26 0.26 0 0 1-0.36 0l-0.684-0.636c-0.024-0.024-0.048-0.024-0.072-0.048l-0.96-0.408c-0.024 0-0.048-0.024-0.072-0.024l-1.272-0.12h-0.096l-1.056 0.3a1.015 1.015 0 0 0-0.708 0.684l-0.252 0.78a0.922 0.922 0 0 0 0.048 0.756l0.396 0.864a1.1 1.1 0 0 0 0.864 0.6l0.96 0.108c0.024 0 0.072 0.024 0.096 0.024l0.54 0.3a0.247 0.247 0 0 1 0.12 0.204l0.072 0.96a2.771 2.771 0 0 0 0.288 0.96l0.456 0.852a0.277 0.277 0 0 0 0.072 0.108l0.756 0.552a0.308 0.308 0 0 0 0.432-0.072l0.252-0.336c0.024-0.048 0.048-0.072 0.072-0.12l0.552-1.392a0.072 0.072 0 0 1 0.036-0.072l0.168-2.004c0-0.024 0.036-0.048 0.036-0.072l0.396-0.828a0.284 0.284 0 0 1 0.252-0.156l1.368 0.18a0.36 0.36 0 0 0 0.228-0.084l0.252-0.276a0.272 0.272 0 0 0 0.024-0.324l-0.66-0.864a0.275 0.275 0 0 1 0.156-0.408l0.252-0.048c0.048 0 0.432-0.024 0.552-0.048h0.048l0.612 0.096a0.264 0.264 0 0 1 0.252 0.288l-0.156 1.74a0.157 0.157 0 0 0 0.036 0.12l0.48 1.248a9.574 9.574 0 0 1-8.772 5.784h0Zm0-21.549a12 12 0 1 0 12 12A12 12-5645.373 0 0 12 0Z" />
</g>
<g class="root" id="home" data-name="home">
	<path style="stroke-width: 2;" d="M23.871 13.328l-11.548-11.974a0.437 0.437 0 0 0-0.32-0.137h0a0.443 0.443 0 0 0-0.328 0.133l-11.548 11.98a0.448 0.448 0 0 0 0.008 0.635a0.472 0.472 0 0 0 0.328 0.121a0.448 0.448 0 0 0 0.312-0.136l1.501-1.557V22.331a0.456 0.456 0 0 0 0.456 0.449h6.332a0.448 0.448 0 0 0 0.448-0.449V15.363h4.968v6.969a0.456 0.456 0 0 0 0.456 0.449h6.332a0.456 0.456 0 0 0 0.456-0.449V12.39l1.493 1.553a0.464 0.464 0 0 0 0.32 0.139h0.008a0.445 0.445 0 0 0 0.328-0.755h0Zm-8.935 1.137h-5.871a0.448 0.448 0 0 0-0.448 0.448v6.972h-5.439V11.452l8.816-9.151l8.824 9.151V21.883h-5.439v-6.972a0.448 0.448 0 0 0-0.448-0.448h0Z" />
</g>
<g class="root" id="home_repiping" data-name="Home repiping">
	<path d="M18.308 13.122H8.214c-0.618 0-1.122-0.503-1.122-1.122s0.503-1.122 1.122-1.122h10.094c2.72 0 4.934-2.213 4.934-4.934c0-2.72-2.213-4.934-4.934-4.934H4.065V0.001H0.758v5.83h3.307V4.822h14.243c0.618 0 1.122 0.503 1.122 1.122s-0.503 1.122-1.122 1.122H8.214c-2.72 0-4.934 2.213-4.934 4.934c0 2.72 2.213 4.934 4.934 4.934h10.094c0.618 0 1.122 0.503 1.122 1.122s-0.503 1.122-1.122 1.122H4.065v-1.009H0.758v5.83h3.307v-1.009h14.243c2.72 0 4.934-2.213 4.934-4.934S21.028 13.122 18.308 13.122zM3.281 5.047H1.541V0.785h1.739V5.047zM3.281 23.216H1.541v-4.262h1.739V23.216zM18.308 22.206H4.065v-2.243h14.243c1.051 0 1.906-0.855 1.906-1.906s-0.855-1.906-1.906-1.906H8.214c-2.288 0-4.15-1.862-4.15-4.15s1.862-4.15 4.15-4.15h10.094c1.051 0 1.906-0.855 1.906-1.906s-0.855-1.906-1.906-1.906H4.065V1.794h14.243c2.288 0 4.15 1.862 4.15 4.15c0 2.288-1.862 4.15-4.15 4.15H8.214c-1.051 0-1.906 0.855-1.906 1.906s0.855 1.906 1.906 1.906h10.094c2.288 0 4.15 1.862 4.15 4.15S20.596 22.206 18.308 22.206z" />
</g>
<g class="root" id="honest" data-name="Honest">
	<path d="M23.998 15.426L23.998 15.426L23.082 6.936c-0.011-0.105-0.065-0.203-0.148-0.268c-0.083-0.066-0.19-0.096-0.294-0.084l-3.242 0.388c-0.151 0.018-0.276 0.118-0.327 0.261c-0.009 0.026-0.018 0.053-0.026 0.081c-0.042-0.057-0.098-0.104-0.165-0.132c-0.076-0.032-1.873-0.798-4.023-1.315C11.978 5.175 9.906 5.268 8.7 6.144l-3.728 0.084L1.79 5.689c-0.104-0.018-0.213 0.008-0.298 0.069c-0.086 0.061-0.144 0.156-0.16 0.261L0.005 14.454c-0.018 0.112 0.013 0.226 0.086 0.314c0.072 0.087 0.178 0.14 0.291 0.145l3.234 0.127c0.173 0.006 0.327-0.097 0.387-0.258l0.281-0.752l5.74 4.088c0.014 0.01 0.029 0.019 0.045 0.028c0.021 0.011 0.523 0.273 1.13 0.389c0.195 0.037 0.382 0.056 0.556 0.056c0.043 0 0.085-0.001 0.132-0.004l0.004 0c0.039-0.002 0.077-0.006 0.118-0.011l0.01-0.001c0.036-0.004 0.071-0.009 0.11-0.016l0.012-0.002c0.033-0.006 0.067-0.013 0.101-0.022l0.013-0.003c0.031-0.008 0.063-0.017 0.094-0.027l0.013-0.004c0.029-0.009 0.059-0.02 0.089-0.032l0.012-0.005c0.028-0.011 0.056-0.023 0.083-0.036l0.011-0.005c0.027-0.013 0.053-0.026 0.078-0.04l0.009-0.005c0.026-0.014 0.05-0.029 0.074-0.044l0.008-0.005c0.024-0.016 0.047-0.032 0.07-0.048l0.005-0.004c0.023-0.017 0.046-0.035 0.069-0.054c0.093-0.077 0.177-0.166 0.251-0.266c0.288 0.098 0.562 0.148 0.818 0.148c0 0 0 0 0 0c0.066 0 0.131-0.004 0.194-0.01c0.489-0.05 0.897-0.285 1.213-0.696c0.064-0.084 0.093-0.189 0.079-0.293c-0.008-0.062-0.03-0.12-0.064-0.17c0.089 0.011 0.177 0.016 0.262 0.016c0 0 0 0 0 0c0.042 0 0.085-0.001 0.126-0.004c0.632-0.038 1.177-0.351 1.619-0.932c0.054-0.071 0.083-0.159 0.081-0.248c0.013 0.001 0.027 0.001 0.04 0.001c0.3 0 0.597-0.112 0.839-0.317l0.001-0.001c0.005-0.002 0.009-0.005 0.013-0.008c0.278-0.184 0.79-0.832 1.198-1.381c0.022 0.119 0.035 0.187 0.036 0.19c0.003 0.015 0.007 0.03 0.012 0.046l0.401 1.257c0.052 0.164 0.203 0.275 0.375 0.276l3.236 0.03l0.004 0c0.112 0 0.219-0.047 0.294-0.131C23.973 15.651 24.01 15.539 23.998 15.426zM23.161 15.068l-2.503-0.023l-0.306-0.962c-0.253-1.321-0.846-5-0.591-6.355l2.576-0.308L23.161 15.068zM3.712 13.29l-0.353 0.945l-2.501-0.098l1.195-7.598l2.557 0.433C4.799 8.336 4.029 11.983 3.712 13.29zM13.541 12.721c-0.162 0.147-0.175 0.399-0.027 0.56c0.461 0.508 1.685 1.738 3.191 2.299c-0.291 0.365-0.619 0.554-1 0.577c-0.967 0.059-1.958-0.942-1.968-0.953c-0.009-0.01-0.019-0.019-0.03-0.028l-1.404-1.174c-0.167-0.141-0.419-0.118-0.559 0.05c-0.141 0.168-0.118 0.419 0.05 0.559L13.183 15.774c0.135 0.135 0.795 0.762 1.647 1.044c-0.043 0.026-0.082 0.059-0.114 0.1c-0.18 0.234-0.397 0.362-0.664 0.389c-0.819 0.086-1.796-0.741-1.805-0.749l-1.408-1.178c-0.081-0.068-0.184-0.1-0.29-0.091c-0.105 0.009-0.201 0.059-0.269 0.141c-0.068 0.081-0.1 0.184-0.091 0.29c0.009 0.105 0.059 0.201 0.141 0.269l1.402 1.172c0.028 0.024 0.273 0.231 0.636 0.444c-0.439 0.366-1.225 0.132-1.666-0.046c-0.017-0.007-0.033-0.013-0.052-0.021c-0.015-0.006-0.029-0.012-0.043-0.018l-0.022 0.05l0.018-0.051c-0.013-0.006-0.026-0.011-0.037-0.016l-0.036-0.016l-0.023 0.049l0.019-0.051l-0.067-0.032L4.54 13.238c0.1-0.431 0.335-1.476 0.535-2.602c0.291-1.643 0.404-2.861 0.336-3.624l2.465-0.056c-0.278 0.361-0.495 0.761-0.648 1.193c-0.238 0.672-0.296 1.382-0.158 1.947c0.151 0.613 0.521 1.021 1.017 1.12c0.521 0.103 1.388-0.1 2.559-1.649l1.02-0.17c0.668 0.442 3.823 2.534 5.166 3.534c0.479 0.356 1.047 0.837 1.184 1.398c0.04 0.162-0.023 0.349-0.165 0.488c-0.136 0.134-0.312 0.189-0.47 0.147c-1.043-0.275-2.269-1.103-3.279-2.216C13.955 12.586 13.704 12.574 13.541 12.721zM11.755 8.583c-0.022 0-0.044 0.002-0.066 0.005l-1.332 0.223c-0.103 0.017-0.193 0.073-0.255 0.157c-1.118 1.528-1.746 1.492-1.861 1.47c-0.248-0.049-0.357-0.353-0.401-0.53c-0.204-0.835 0.162-2.191 1.244-3.06c0.972-0.78 2.901-0.853 5.577-0.211c2.087 0.501 3.887 1.267 3.905 1.275c0.126 0.054 0.266 0.039 0.374-0.032c-0.08 0.765-0.02 1.937 0.178 3.487c0.067 0.525 0.149 1.086 0.244 1.668c-0.057 0.029-0.107 0.071-0.145 0.125c-0.167 0.236-0.346 0.478-0.521 0.706c-0.273-0.676-0.883-1.193-1.392-1.572c-1.529-1.138-5.295-3.62-5.333-3.645C11.908 8.605 11.832 8.583 11.755 8.583z" />
</g>
<g class="root" id="knowledge" data-name="Knowledge">
	<path d="M21.244 16.59c-0.049-0.422-0.283-0.845-0.697-1.26l-0.585-0.585l0.827-0.827c0.586-0.587 0.581-1.549-0.013-2.146l-0.172-0.17c-0.188-0.188-0.416-0.32-0.665-0.391c0.051-0.154 0.078-0.317 0.076-0.486c-0.004-0.404-0.162-0.784-0.449-1.071l-0.173-0.173c-0.193-0.193-0.429-0.327-0.687-0.395c0.154-0.518 0.024-1.105-0.387-1.518l-0.171-0.169c-0.289-0.29-0.674-0.45-1.083-0.45c0 0 0 0 0 0c-0.255 0-0.499 0.063-0.715 0.179c-0.074-0.204-0.192-0.396-0.355-0.56l-0.174-0.174c-0.595-0.595-1.556-0.599-2.144-0.012l-1.038 1.039L11.126 5.907c-0.489-0.519-0.431-1.206-0.4-1.574c0.006-0.07 0.011-0.131 0.012-0.178c0.04-1.114-0.386-2.201-1.168-2.982C8.432 0.035 6.734-0.31 5.242 0.293c-0.146 0.059-0.253 0.188-0.284 0.342c-0.031 0.154 0.017 0.314 0.128 0.425l1.854 1.854c0.343 0.343 0.339 0.925-0.008 1.273c-0.347 0.348-0.93 0.35-1.274 0.008L3.806 2.341c-0.112-0.112-0.271-0.16-0.425-0.129c-0.154 0.031-0.283 0.138-0.342 0.284c-0.603 1.491-0.258 3.19 0.88 4.327c0.78 0.78 1.863 1.205 2.975 1.167c0.054-0.001 0.116-0.006 0.185-0.012c0.28-0.023 0.749-0.062 1.182 0.137l0.392-0.854c-0.658-0.302-1.306-0.249-1.652-0.22c-0.052 0.005-0.094 0.008-0.126 0.008c-0.004 0-0.007 0-0.01 0c-0.852 0.03-1.685-0.295-2.282-0.892c-0.689-0.689-0.998-1.647-0.869-2.582l1.281 1.282c0.717 0.715 1.883 0.711 2.602-0.008c0.719-0.719 0.722-1.886 0.008-2.601L6.323 0.968c0.935-0.131 1.893 0.178 2.583 0.868c0.598 0.597 0.924 1.43 0.893 2.293c-0.001 0.031-0.005 0.073-0.009 0.124c-0.038 0.442-0.125 1.478 0.658 2.304c0.003 0.003 0.006 0.006 0.008 0.008l0.576 0.576c-0.152-0.011-0.252-0.003-0.264-0.002c-0.066 0.007-0.129 0.026-0.186 0.059c-1.811 1.03-2.534 2.608-2.624 2.818c-0.335 0.677-0.646 3.286-0.706 3.809c-0.001 0.006-0.001 0.01-0.002 0.016c-0.039 0.492-0.258 0.808-0.258 0.808c-0.154 0.209-0.11 0.502 0.099 0.657c0.084 0.062 0.181 0.092 0.279 0.092c0.144 0 0.286-0.066 0.379-0.191c0.039-0.052 0.376-0.529 0.439-1.283c0.167-1.464 0.442-3.167 0.613-3.489c0.007-0.013 0.014-0.028 0.02-0.041c0.006-0.014 0.594-1.401 2.125-2.317c0.16 0.008 0.505 0.061 0.796 0.353c0.261 0.261 2.26 2.26 3.098 3.099c-0.432 0.295-1.161 0.623-1.747 0.037L11.481 9.952c-0.183-0.183-0.481-0.183-0.664 0c-0.183 0.183-0.183 0.481 0 0.664l0.617 0.617c0.008 0.009 0.015 0.021 0.024 0.03c1.323 1.323 0.54 3.019 0.503 3.096c-0.113 0.233-0.016 0.513 0.217 0.626c0.067 0.032 0.136 0.048 0.206 0.048c0.174 0 0.341-0.097 0.423-0.264c0.216-0.443 0.423-1.218 0.33-2.065c0.709 0.282 1.447 0.067 2.019-0.266c0.049 0.321 0.195 0.618 0.429 0.852l0.173 0.174c0.28 0.28 0.65 0.437 1.043 0.446c0.009 0.379 0.158 0.755 0.448 1.045l0.172 0.172c0.286 0.286 0.667 0.445 1.071 0.449c0.004 0 0.008 0 0.012 0c0.271 0 0.531-0.072 0.757-0.205l0.621 0.621c0.256 0.256 0.405 0.5 0.427 0.703c0.008 0.07 0.033 0.285-0.277 0.595c-0.309 0.309-0.524 0.285-0.595 0.276c-0.203-0.023-0.445-0.171-0.702-0.427l-3.764-3.765l-0.664 0.664l2.477 2.478c-1.347 1.231-2.387 2.016-3.091 2.331c-0.869 0.391-1.537 0.218-1.561 0.211c-0.164-0.048-0.342-0.002-0.463 0.119l-0.819 0.82l-5.123-5.124c-0.183-0.183-0.481-0.183-0.664 0L3.057 16.88c-0.183 0.183-0.183 0.481 0 0.664c0.183 0.183 0.481 0.183 0.664 0l1.675-1.675l5.655 5.655L9.376 23.199c-0.183 0.183-0.183 0.481 0 0.664c0.092 0.092 0.212 0.137 0.332 0.137c0.12 0 0.24-0.046 0.332-0.137l2.007-2.007c0.088-0.088 0.137-0.208 0.137-0.332s-0.05-0.244-0.137-0.332l-0.531-0.531l0.646-0.646c0.379 0.047 1.094 0.059 1.917-0.311c0.811-0.363 1.917-1.191 3.371-2.524l0.623 0.623c0.413 0.413 0.837 0.647 1.259 0.696c0.057 0.007 0.115 0.009 0.171 0.009c0.425 0 0.827-0.186 1.195-0.555C21.116 17.537 21.3 17.077 21.244 16.59zM14.343 7.047c0.222-0.222 0.588-0.216 0.816 0.012l0.173 0.174c0.227 0.228 0.233 0.593 0.013 0.814L14.017 9.375c-0.361-0.361-0.714-0.715-1.001-1.001L14.343 7.047zM14.681 10.04l1.328-1.327c0.001-0.001 0.002-0.002 0.003-0.003l0.659-0.658c0.104-0.104 0.245-0.162 0.395-0.162c0.158 0 0.306 0.062 0.42 0.176l0.171 0.169c0.228 0.229 0.234 0.595 0.012 0.817l-1.988 1.988C15.468 10.827 15.099 10.457 14.681 10.04zM16.249 12.628c-0.111-0.111-0.172-0.258-0.174-0.414c-0.001-0.154 0.056-0.296 0.162-0.402l1.678-1.677c0.104-0.104 0.244-0.162 0.395-0.162c0.002 0 0.004 0 0.005 0c0.156 0.001 0.303 0.063 0.414 0.174l0.173 0.172c0.111 0.111 0.172 0.258 0.174 0.414c0.001 0.153-0.056 0.296-0.162 0.401l-0.449 0.448c-0.002 0.002-0.004 0.004-0.006 0.006l-1.224 1.224c-0.105 0.105-0.243 0.164-0.402 0.162c-0.156-0.001-0.303-0.063-0.413-0.172L16.249 12.628zM18.5 14.638c-0.157-0.001-0.303-0.063-0.414-0.174l-0.172-0.172c-0.228-0.228-0.234-0.595-0.012-0.817l0.093-0.093l1.136-1.136c0.103-0.1 0.241-0.156 0.391-0.156c0 0 0 0 0.001 0c0.158 0 0.307 0.062 0.421 0.176l0.172 0.17c0.228 0.229 0.233 0.595 0.012 0.816l-1.225 1.224C18.796 14.582 18.653 14.636 18.5 14.638z" />
</g>
<g class="root" id="leaks" data-name="Leaks">
	<path d="M20.775 0.507v1.013H3.224V0.507H-0.001v11.838h3.225V11.352l17.551-0.02v1.013h3.225V0.507H20.775zM2.533 11.655H0.69V1.198h1.843V11.655zM12.344 10.652V9.382l-0.96-1.44l0.866-1.73l2.412-0.969l-0.258-0.641l-2.322 0.934l-1.358-1.358l-0.488 0.488l1.345 1.345l-0.747 1.495l-0.705-0.352l-0.309 0.618l0.931 0.466l0.905 1.357v1.06L3.224 10.661V2.211h17.551v8.431L12.344 10.652zM23.309 11.655h-1.843V1.198h1.843V11.655zM13.865 16.452c0-0.829-0.419-1.456-0.823-2.064c-0.314-0.471-0.611-0.916-0.702-1.434c-0.029-0.166-0.173-0.286-0.341-0.286s-0.311 0.121-0.341 0.286c-0.091 0.518-0.388 0.964-0.702 1.434c-0.405 0.607-0.823 1.235-0.823 2.064c0 1.107 0.82 1.974 1.865 1.974S13.865 17.559 13.865 16.452zM11.999 17.735c-0.659 0-1.174-0.564-1.174-1.284c0-0.619 0.344-1.135 0.708-1.681c0.162-0.243 0.327-0.49 0.467-0.753c0.14 0.264 0.305 0.51 0.467 0.753c0.364 0.546 0.708 1.06 0.708 1.681C13.174 17.171 12.659 17.735 11.999 17.735zM15.379 18.522c-0.031-0.162-0.174-0.28-0.338-0.28s-0.307 0.117-0.338 0.28c-0.089 0.454-0.382 0.85-0.693 1.27c-0.41 0.553-0.834 1.125-0.834 1.89c0 1.015 0.82 1.811 1.865 1.811s1.865-0.796 1.865-1.811c0-0.766-0.424-1.338-0.834-1.89C15.761 19.372 15.466 18.975 15.379 18.522zM15.039 22.803c-0.659 0-1.174-0.492-1.174-1.12c0-0.538 0.338-0.995 0.698-1.479c0.166-0.223 0.334-0.45 0.477-0.694c0.143 0.244 0.312 0.471 0.477 0.694c0.359 0.485 0.698 0.942 0.698 1.479C16.215 22.31 15.699 22.803 15.039 22.803zM9.046 18.019c-0.03-0.165-0.173-0.283-0.34-0.283s-0.31 0.12-0.34 0.283c-0.073 0.398-0.315 0.747-0.572 1.118c-0.344 0.495-0.7 1.007-0.7 1.695c0 0.924 0.708 1.649 1.612 1.649s1.612-0.724 1.612-1.649c0-0.687-0.356-1.2-0.7-1.695C9.361 18.767 9.119 18.417 9.046 18.019zM8.706 21.789c-0.517 0-0.921-0.42-0.921-0.958c0-0.471 0.28-0.874 0.576-1.301c0.119-0.17 0.238-0.343 0.345-0.525c0.107 0.182 0.227 0.355 0.345 0.525c0.296 0.426 0.577 0.829 0.577 1.301C9.627 21.369 9.222 21.789 8.706 21.789z" />
</g>
<g class="root" id="location_pin" data-name="location-pin">
	<path d="M12.134 0.001a9.118 9.118 0 0 0-1.521 0.107a8.949 8.949 0 0 0-7.558 8.705C2.974 13.756 8.757 20.897 11.859 24c3.908-3.908 9.01-9.97 9.087-14.912l-5.109-0.08h0a3.959 3.959 0 0 1-1.395 2.187a3.959 3.959 0 0 1-2.451 0.852a3.959 3.959 0 0 1-2.792-1.161a3.959 3.959 0 0 1-1.154-2.795a3.959 3.959 0 0 1 1.16-2.792a3.959 3.959 0 0 1 2.795-1.154a3.959 3.959 0 0 1 2.793 1.16a3.952 3.952 0 0 1 1.154 2.795l-3.952 0l3.952 0h0a3.866 3.866 0 0 1-0.112 0.907l5.107 0.077a8.95 8.95 0 0 0-8.813-9.083Z" />
</g>
<g class="root" id="other_services" data-name="other services">
	<path d="M19.404 13.408c-1.017-1.298-2.292-2.7-3.183-3.647c-0.334-0.356-0.787-0.563-1.242-0.571c-0.426-0.004-0.831 0.162-1.144 0.475l-0.782 0.782L11.363 8.758c0.323-0.696 0.495-1.46 0.495-2.251c0-1.428-0.556-2.772-1.567-3.782l-0.129-0.129c0.292-0.52 0.218-1.19-0.223-1.632L8.974 0L0 8.974l0.965 0.965c0.258 0.258 0.6 0.4 0.965 0.4c0.238 0 0.466-0.061 0.669-0.175l0.128 0.128c1.01 1.01 2.354 1.567 3.782 1.567c0.79 0 1.554-0.171 2.251-0.495l1.69 1.69l-1.303 1.303l0.52 0.52l4.691-4.691c0.173-0.173 0.384-0.263 0.612-0.259c0.258 0.004 0.519 0.128 0.718 0.339c3.847 4.09 4.71 5.779 4.63 6.114l-4.964 4.964c-0.374 0.374-1.076 0.265-1.695 0.168c-0.577-0.09-1.075-0.168-1.385 0.142l-1.303 1.303l-4.691-4.691l0.782-0.782c0.304-0.304 0.351-1.274 0.351-1.823c0-0.707 0.148-1.696 0.854-2.401l0.308-0.308l-0.52-0.52l-0.308 0.308c-0.699 0.699-1.069 1.711-1.069 2.923c0 0.78-0.098 1.215-0.151 1.319l-1.287 1.287l5.733 5.733l1.815-1.815c0.108-0.045 0.499 0.016 0.76 0.056c0.713 0.112 1.691 0.264 2.329-0.375l4.976-4.976C21.359 16.377 20.941 15.368 19.404 13.408zM3.247 9.77l-0.092-0.092l1.149-1.149l-0.52-0.52l-1.149 1.149l-0.092-0.092l-0.52 0.52l0.006 0.006c-0.191 0.029-0.395-0.027-0.542-0.174l-0.444-0.444L8.974 1.042l0.444 0.444c0.147 0.147 0.205 0.35 0.174 0.542l-0.006-0.006l-0.52 0.52l0.092 0.092L5.896 5.896l0.52 0.52l3.262-3.262l0.092 0.092c0.871 0.871 1.351 2.03 1.351 3.262c0 1.232-0.48 2.39-1.351 3.262c-0.871 0.871-2.03 1.351-3.262 1.351S4.118 10.642 3.247 9.77zM9.428 10.991c0.308-0.201 0.598-0.434 0.863-0.701c0.266-0.266 0.499-0.556 0.701-0.864l1.541 1.541l-1.565 1.565L9.428 10.991zM23.324 22.002c0 0.492-0.191 0.955-0.54 1.303c-0.349 0.349-0.811 0.54-1.303 0.54s-0.955-0.191-1.303-0.54l-2.174-2.174l0.52-0.52l2.174 2.174c0.209 0.209 0.487 0.324 0.782 0.324c0.296 0 0.573-0.115 0.782-0.324c0.209-0.209 0.324-0.487 0.324-0.782c0-0.296-0.115-0.573-0.324-0.782l-2.174-2.174l0.52-0.52l2.174 2.174C23.132 21.048 23.324 21.51 23.324 22.002z" />
</g>
<g class="root" id="saftey" data-name="saftey">
	<path d="M23.286 23.704c-0.097 0.241-0.37 0.358-0.611 0.262c-0.201-0.081-0.406-0.161-0.614-0.242c-2.135-0.836-4.553-1.783-4.553-3.69c0-0.798 0.269-1.408 0.581-2.113c0.426-0.963 0.956-2.163 0.956-4.424V7.985c0-1.071-0.361-2.842-1.379-4.309C16.407 1.86 14.5 0.94 12 0.94c-2.5 0-4.407 0.92-5.666 2.736C5.316 5.144 4.955 6.914 4.955 7.985v5.511c0 2.261 0.53 3.46 0.956 4.424c0.312 0.706 0.581 1.315 0.581 2.113c0 1.907-2.419 2.855-4.553 3.69c-0.207 0.081-0.413 0.162-0.614 0.242c-0.057 0.023-0.117 0.034-0.175 0.034c-0.186 0-0.363-0.112-0.436-0.295c-0.097-0.241 0.021-0.514 0.262-0.611c0.203-0.081 0.411-0.163 0.619-0.244c1.855-0.727 3.956-1.55 3.956-2.815c0-0.6-0.221-1.101-0.501-1.733c-0.462-1.044-1.036-2.344-1.036-4.803V7.985C4.015 5.764 5.449 0 12 0c6.551 0 7.985 5.764 7.985 7.985v5.511c0 2.459-0.574 3.759-1.036 4.803c-0.28 0.634-0.501 1.134-0.501 1.733c0 1.266 2.102 2.089 3.956 2.815c0.21 0.082 0.416 0.164 0.619 0.244C23.266 23.19 23.382 23.464 23.286 23.704zM16.979 14.734c0 2.044-1.558 4.243-4.979 4.243c-3.422 0-4.979-2.2-4.979-4.243c0-1.096 0.485-1.778 1.027-2.271h-0.557c-0.812 0-1.472-0.661-1.472-1.472V8.486c0-0.71 0.506-1.305 1.175-1.442c0.869-1.504 2.801-2.535 4.806-2.535s3.937 1.031 4.806 2.535c0.67 0.137 1.175 0.732 1.175 1.442v2.505c0 0.812-0.661 1.472-1.472 1.472h-0.557C16.495 12.956 16.979 13.639 16.979 14.734zM8.361 7.014h7.276c-0.81-0.947-2.197-1.565-3.639-1.565S9.172 6.067 8.361 7.014zM7.491 11.523h1.774c0.023-0.021 0.045-0.041 0.066-0.061c0.143-0.141 0.293-0.304 0.453-0.476c0.636-0.688 1.357-1.467 2.216-1.467c0.859 0 1.58 0.779 2.216 1.467c0.159 0.172 0.31 0.335 0.453 0.476c0.021 0.021 0.043 0.04 0.066 0.061h1.774c0.293 0 0.532-0.239 0.532-0.532V8.486c0-0.293-0.239-0.532-0.532-0.532H7.491c-0.293 0-0.532 0.239-0.532 0.532v2.505C6.959 11.284 7.198 11.523 7.491 11.523zM16.039 14.734c0-1.099-0.658-1.57-1.355-2.068c-0.245-0.175-0.477-0.341-0.673-0.534c-0.16-0.156-0.318-0.327-0.484-0.508c-0.48-0.519-1.078-1.166-1.527-1.166c-0.448 0-1.046 0.647-1.527 1.166c-0.167 0.18-0.325 0.352-0.484 0.509c-0.196 0.193-0.428 0.358-0.673 0.534c-0.697 0.498-1.355 0.969-1.355 2.068c0 1.644 1.249 3.303 4.039 3.303C14.79 18.037 16.039 16.378 16.039 14.734z" />
</g>
<g class="root" id="search" data-name="search">
	<path d="M23.234 21.861L17.522 15.92c1.468-1.746 2.274-3.942 2.274-6.23c0-5.343-4.347-9.69-9.69-9.69s-9.69 4.347-9.69 9.69s4.347 9.69 9.69 9.69c2.006 0 3.918-0.604 5.552-1.754l5.756 5.986c0.24 0.25 0.564 0.387 0.91 0.387c0.328 0 0.639-0.126 0.876-0.352C23.7 23.164 23.716 22.364 23.234 21.861zM10.104 2.529c3.95 0 7.163 3.213 7.163 7.163s-3.213 7.163-7.163 7.163s-7.163-3.213-7.163-7.163S6.156 2.529 10.104 2.529z" />
</g>
<g class="root" id="septic" data-name="septic">
	<path d="M13.8 16.422c0.056-0.238 0.295-0.385 0.533-0.329c0.928 0.218 2.066-0.049 3.042-0.714c0.809-0.55 1.347-1.273 1.443-1.933c0.035-0.242 0.26-0.41 0.502-0.375c0.242 0.035 0.41 0.26 0.375 0.502c-0.131 0.915-0.795 1.84-1.821 2.538c-0.899 0.612-1.925 0.941-2.88 0.941c-0.297 0-0.587-0.032-0.865-0.097C13.892 16.899 13.744 16.66 13.8 16.422zM3.619 11.557h18.091v0.946c0 1.809-0.838 3.491-2.361 4.739c-1.201 0.984-2.731 1.607-4.173 1.714v0.9l2.01 2.01v2.134H5.749v-1.005H2.734v-3.9H6.008l1.751-1.751v-1.141L5.749 14.194V12.443H2.734v-9.045H2.231V0h9.428v3.398h-0.503v7.597h-0.885V3.398H3.619V11.557zM3.116 2.513h7.658V0.885H3.116V2.513zM5.749 22.11v-2.129H3.619v2.129H5.749zM20.823 12.443H6.634v1.384l2.01 2.01v1.874l-2.01 2.01v3.394h9.667v-0.881l-2.01-2.01v-1.257c-1.543-0.06-2.477-0.441-3.764-1.037l0.372-0.803c1.29 0.598 2.165 0.963 3.833 0.963c2.544 0 6.091-2.126 6.091-5.588V12.443zM12.221 10.051v0.885h9.548v-0.885H12.221z" />
</g>
<g class="root" id="sewer" data-name="Sewer">
	<path d="M23.477 15.105v-0.908h-3.208V14.127c0-0.538-0.439-0.977-0.977-0.977h-2.093c-0.538 0-0.977 0.439-0.977 0.977v0.07H13.535c-1.77 0-3.208-1.44-3.208-3.208V7.779h0.07c0.538 0 0.977-0.439 0.977-0.977V4.709c0-0.538-0.439-0.977-0.977-0.977h-0.07V0h-0.908v3.732H2.478V0h-0.908v3.732H1.501C0.962 3.732 0.524 4.17 0.524 4.709v2.093c0 0.538 0.439 0.977 0.977 0.977h0.07v4.778c0 5.733 4.663 10.396 10.396 10.396h4.255v0.07c0 0.538 0.439 0.977 0.977 0.977h2.093c0.538 0 0.977-0.439 0.977-0.977v-0.07h3.208v-0.908h-3.208V15.105H23.477zM1.431 6.802V4.709c0-0.038 0.032-0.07 0.07-0.07h8.895c0.038 0 0.07 0.032 0.07 0.07v2.093c0 0.038-0.032 0.07-0.07 0.07H1.501C1.463 6.872 1.431 6.84 1.431 6.802zM11.965 22.046c-5.232 0-9.488-4.256-9.488-9.488V7.779h6.941v3.208c0 2.27 1.847 4.116 4.116 4.116h2.686v6.941H11.965zM19.36 23.023c0 0.038-0.032 0.07-0.07 0.07h-2.093c-0.038 0-0.07-0.032-0.07-0.07V14.127c0-0.038 0.032-0.07 0.07-0.07h2.093c0.038 0 0.07 0.032 0.07 0.07V23.023z" />
</g>
<g class="root" id="sewer_line" data-name="sewer line">
	<path d="M19.414 9.198l1 1L22.517 8.095L15.413 0.991L13.31 3.094l1 1L10.338 8.066V2.853h1V0H1.483v2.853h1v18.295H1.483V24h9.854v-2.853h-1v-2.873L19.414 9.198zM15.413 2.196L21.313 8.095l-0.898 0.898L14.515 3.094L15.413 2.196zM2.336 0.852h8.15v1.149H2.336V0.852zM10.486 23.148H2.336v-1.149h8.15V23.148zM3.335 21.147V2.853h6.149v6.067l-1.376 1.376l0.602 0.602l6.2-6.2l3.898 3.898L9.486 17.922v3.227H3.335z" />
</g>
<g class="root" id="snake" data-name="Snake">
	<path d="M23.497 20.166V9.48c0-4.115-3.348-7.463-7.463-7.463S8.57 5.364 8.57 9.48v5.041c0 0.332-0.27 0.603-0.603 0.603s-0.603-0.27-0.603-0.603V3.836h0.504V1.008H0v2.827h0.504v10.685c0 4.115 3.348 7.463 7.463 7.463s7.463-3.348 7.463-7.463v-5.041c0-0.332 0.27-0.603 0.603-0.603s0.603 0.27 0.603 0.603v10.685h-0.504v2.827h7.868v-2.827H23.497zM0.811 1.819h6.247v1.206H0.811V1.819zM16.033 8.066c-0.78 0-1.414 0.634-1.414 1.414v5.041c0 3.668-2.984 6.652-6.652 6.652S1.315 18.19 1.315 14.521V3.836h5.238v10.685c0 0.78 0.634 1.414 1.414 1.414s1.414-0.634 1.414-1.414v-5.041c0-3.668 2.984-6.652 6.652-6.652s6.652 2.984 6.652 6.652v10.685H17.448V9.48C17.448 8.7 16.813 8.066 16.033 8.066zM23.19 22.183h-6.247v-1.206h6.247V22.183zM8.254 16.755l1.799 1.799l-1.799 1.799l-0.573-0.573l0.82-0.82h-0.534c-2.448 0-4.438-1.991-4.438-4.438V10.488h0.811v4.033c0 2 1.627 3.627 3.627 3.627h0.534l-0.82-0.82L8.254 16.755zM16.033 5.852h-1.008v-0.811h1.008c2.448 0 4.438 1.991 4.438 4.438v3.054l0.82-0.82l0.573 0.573l-1.799 1.799l-1.799-1.799l0.573-0.573l0.82 0.82v-3.054C19.662 7.479 18.034 5.852 16.033 5.852z" />
</g>
<g class="root" id="tankless" data-name="tankless">
	<path d="M18.514 0H5.486C4.687 0 4.036 0.651 4.036 1.45v17.25l3.292 2.741h1.718v2.559h0.896v-2.559h4.115v2.559h0.896v-2.559H16.673l3.292-2.741V1.45C19.965 0.651 19.314 0 18.514 0zM19.069 18.28l-2.72 2.265H7.652L4.932 18.28V1.45C4.932 1.144 5.18 0.896 5.486 0.896h13.028c0.305 0 0.554 0.248 0.554 0.554V18.28zM17.726 2.359l0.574 0.689l-1.628 1.356H7.328l-1.628-1.358l0.574-0.689l1.379 1.15h8.695L17.726 2.359zM13.951 14.979c0-1.075-0.875-1.951-1.951-1.951c-1.075 0-1.951 0.875-1.951 1.951s0.875 1.951 1.951 1.951C13.076 16.932 13.951 16.056 13.951 14.979zM10.946 14.979c0-0.583 0.474-1.055 1.055-1.055s1.055 0.474 1.055 1.055s-0.474 1.055-1.055 1.055S10.946 15.562 10.946 14.979zM9.495 18.04h5.012v0.896H9.495V18.04z" />
</g>
<g class="root" id="thermostat" data-name="thermostat">
	<path d="M17.803-0.001H6.196C5.689-0.001 5.277 0.412 5.277 0.918v22.163c0 0.507 0.412 0.919 0.919 0.919h11.608c0.507 0 0.919-0.412 0.919-0.919V0.918C18.722 0.412 18.31-0.001 17.803-0.001zM17.935 23.081c0 0.072-0.059 0.131-0.131 0.131H6.196c-0.072 0-0.131-0.059-0.131-0.131V0.918c0-0.072 0.059-0.131 0.131-0.131h11.608c0.072 0 0.131 0.059 0.131 0.131V23.081zM14.837 5.398h1.142v-0.787h-1.142V2.639H9.334v1.971h-1.142v0.787h1.142v1.852h-1.837v0.787h1.837v1.852h-1.142v0.787h1.142v1.853h-1.837v0.787h1.837v1.852h-1.142v0.787h1.142v2.226h0.787V3.426h1.571v14.902c-0.815 0.181-1.428 0.908-1.428 1.777c0 1.004 0.818 1.822 1.822 1.822s1.822-0.818 1.822-1.822c0-0.869-0.612-1.597-1.428-1.777V3.426h1.571v14.758h0.787v-2.226h1.142v-0.787h-1.142v-1.852h1.837v-0.787h-1.837V10.678h1.142v-0.787h-1.142V8.037h1.837v-0.787h-1.837V5.398zM13.119 20.105c0 0.57-0.463 1.034-1.034 1.034s-1.034-0.463-1.034-1.034s0.463-1.034 1.034-1.034S13.119 19.536 13.119 20.105z" />
</g>
<g class="root" id="truck" data-name="truck">
	<path d="M23.103 12.759L23.103 12.759c-0.261-0.213-0.519-0.392-0.668-0.492c-0.221-0.791-1.288-4.183-3.39-4.183h-3.127V4.042H0.001v13.896h3.061c0.183 1.159 1.187 2.021 2.375 2.021c1.188 0 2.192-0.862 2.375-2.021h8.881c0.183 1.159 1.187 2.021 2.375 2.021s2.192-0.862 2.375-2.021h2.556V14.021C24.001 13.66 23.715 13.258 23.103 12.759zM5.438 19.197c-0.907 0-1.645-0.734-1.645-1.636s0.738-1.636 1.645-1.636c0.907 0 1.645 0.734 1.645 1.636S6.345 19.197 5.438 19.197zM15.157 4.802v12.375H7.812c-0.187-1.154-1.19-2.012-2.374-2.012s-2.187 0.858-2.374 2.012H0.761V4.802H15.157zM19.069 19.197c-0.907 0-1.645-0.734-1.645-1.636s0.738-1.636 1.645-1.636s1.645 0.734 1.645 1.636S19.976 19.197 19.069 19.197zM15.917 8.844h3.127c0.863 0 1.54 0.981 1.955 1.804c0.271 0.537 0.469 1.078 0.597 1.477h-3.029c-0.347 0-0.63-0.283-0.63-0.63v-2.135h-0.76v2.135c0 0.767 0.624 1.391 1.391 1.391h3.423c0.122 0.082 0.379 0.257 0.631 0.463c0.551 0.449 0.613 0.657 0.618 0.679v3.15h-1.797c-0.187-1.154-1.19-2.012-2.374-2.012s-2.187 0.858-2.374 2.012h-0.778V8.844zM4.295 11.763c0.882 0.882 2.012 1.142 3.099 0.713c0.203-0.08 0.455-0.017 0.63 0.158l3.059 3.059c0.263 0.263 0.612 0.407 0.983 0.407c0.037 0 0.075-0.002 0.113-0.005c0.407-0.033 0.779-0.244 1.021-0.579c0.391-0.544 0.311-1.33-0.188-1.828l-3.021-3.021c-0.174-0.175-0.238-0.427-0.158-0.63c0.43-1.087 0.17-2.216-0.713-3.099c-0.509-0.509-1.21-0.844-1.921-0.918c-0.732-0.076-1.4 0.129-1.832 0.56c-0.072 0.072-0.111 0.167-0.111 0.269s0.04 0.197 0.111 0.269l1.517 1.517l-0.891 0.891l-1.517-1.517c-0.072-0.072-0.167-0.111-0.269-0.111c-0.102 0-0.197 0.04-0.269 0.111c-0.432 0.432-0.636 1.1-0.56 1.832C3.451 10.554 3.785 11.254 4.295 11.763zM7.69 8.368l-1.466-1.466c0.251-0.114 0.563-0.158 0.896-0.124c0.54 0.056 1.073 0.311 1.461 0.699c0.658 0.658 0.856 1.49 0.543 2.282c-0.193 0.487-0.064 1.055 0.327 1.447l3.021 3.021c0.238 0.238 0.285 0.602 0.109 0.846c-0.113 0.156-0.278 0.251-0.465 0.266c-0.184 0.015-0.366-0.052-0.497-0.182l-3.059-3.059c-0.264-0.264-0.621-0.416-0.98-0.416c-0.162 0-0.319 0.03-0.467 0.088c-0.792 0.313-1.623 0.115-2.282-0.543c-0.388-0.388-0.643-0.921-0.699-1.461c-0.035-0.333 0.009-0.646 0.124-0.896l1.466 1.466c0.072 0.072 0.167 0.111 0.269 0.111c0.102 0 0.197-0.04 0.269-0.111l1.429-1.429c0.072-0.072 0.111-0.167 0.111-0.269C7.802 8.535 7.762 8.44 7.69 8.368z" />
</g>
<g class="root" id="water_heater" data-name="water heater">
	<path d="M17.289 0H6.716C5.436 0 4.399 1.037 4.399 2.317v16.902c0 1.274 1.037 2.317 2.317 2.317h0.701l0.354 1.415c0.152 0.622 0.707 1.049 1.348 1.049h5.543c0.573 0 1.098-0.36 1.299-0.902l0.585-1.561h0.738c1.274 0 2.317-1.037 2.317-2.317V2.317C19.6 1.037 18.564 0 17.289 0zM6.716 0.927h10.573c0.768 0 1.39 0.622 1.39 1.39v0.543H5.326V2.317C5.326 1.549 5.948 0.927 6.716 0.927zM15.094 22.768c-0.067 0.177-0.244 0.299-0.433 0.299H9.119c-0.213 0-0.396-0.146-0.451-0.348l-0.299-1.189H15.558L15.094 22.768zM17.289 20.61H16.228H7.777H6.716c-0.768 0-1.39-0.622-1.39-1.39V3.78h13.354v15.433C18.679 19.982 18.051 20.61 17.289 20.61zM12.003 12.909c-0.61 0-1.177 0.238-1.61 0.665c-0.884 0.884-0.884 2.329 0 3.22c0.445 0.445 1.024 0.665 1.61 0.665c0.585 0 1.165-0.22 1.61-0.665c0.884-0.89 0.884-2.329 0-3.22C13.179 13.146 12.606 12.909 12.003 12.909zM12.954 16.14c-0.256 0.256-0.591 0.396-0.951 0.396c-0.36 0-0.701-0.14-0.951-0.396c-0.524-0.524-0.524-1.384 0-1.909c0.262-0.262 0.61-0.396 0.951-0.396c0.348 0 0.689 0.134 0.951 0.396C13.478 14.756 13.478 15.61 12.954 16.14zM12.003 11.396c-1.012 0-1.963 0.396-2.683 1.11c-1.476 1.476-1.476 3.884 0 5.36c0.738 0.738 1.707 1.11 2.683 1.11c0.97 0 1.939-0.372 2.677-1.11c0.713-0.713 1.11-1.665 1.11-2.677c0-1.012-0.396-1.963-1.11-2.677C13.966 11.787 13.015 11.396 12.003 11.396zM14.027 17.207c-1.116 1.116-2.933 1.116-4.049 0c-1.116-1.116-1.116-2.933 0-4.049c0.543-0.543 1.262-0.841 2.024-0.841c0.762 0 1.482 0.299 2.024 0.841c0.543 0.543 0.841 1.262 0.841 2.024C14.862 15.951 14.57 16.665 14.027 17.207zM16.631 6.213c0 0.256-0.207 0.463-0.463 0.463H7.832c-0.256 0-0.463-0.207-0.463-0.463c0-0.256 0.207-0.463 0.463-0.463H16.167C16.423 5.75 16.631 5.957 16.631 6.213z" />
</g>
<g class="root" id="whole_home" data-name="Whole Home">
	<path d="M21.256 6.301H14.158V3.298h0.497c0.24 0 0.434-0.194 0.434-0.434V0.434c0-0.24-0.194-0.434-0.434-0.434H8.954c-0.24 0-0.434 0.194-0.434 0.434v2.431c0 0.24 0.194 0.434 0.434 0.434h0.526v5.567c0 1.182 0.961 2.143 2.143 2.143h7.457v8.434H10.798v-4.247c0-1.265-1.029-2.293-2.293-2.293h-5.463v-0.406c0-0.24-0.194-0.434-0.434-0.434H0.434c-0.24 0-0.434 0.194-0.434 0.434v5.896c0 0.24 0.194 0.434 0.434 0.434h2.175c0.24 0 0.434-0.194 0.434-0.434v-0.782h3.198v4.427c0 1.082 0.882 1.964 1.964 1.964h13.336c0.991 0 1.799-0.806 1.799-1.799V8.385C23.34 7.236 22.405 6.301 21.256 6.301zM9.388 0.867h4.834v1.564h-0.497h-0.001h-4.336V0.867zM2.175 17.958H0.867v-5.029h1.308V17.958zM22.472 22.201c0 0.513-0.418 0.932-0.932 0.932H8.204c-0.604 0-1.097-0.491-1.097-1.097v-4.86c0-0.24-0.194-0.434-0.434-0.434H3.058V13.768h5.447c0.786 0 1.426 0.64 1.426 1.426v4.681c0 0.24 0.194 0.434 0.434 0.434h9.151c0.24 0 0.434-0.194 0.434-0.434V10.574c0-0.24-0.194-0.434-0.434-0.434h-7.891c-0.704 0-1.276-0.572-1.276-1.276V3.311l2.944-0.012V6.735c0 0.24 0.194 0.434 0.434 0.434h7.531c0.671 0 1.217 0.546 1.217 1.217V22.201z" />
</g>
</svg>